<svg xmlns="http://www.w3.org/2000/svg" xmlns:xlink="http://www.w3.org/1999/xlink" width="500" zoomAndPan="magnify" viewBox="0 0 375 374.999991" height="500" preserveAspectRatio="xMidYMid meet" version="1.0"><defs><clipPath id="7ed5d480e9"><path d="M 73.578125 64.433594 L 301.578125 64.433594 L 301.578125 292.433594 L 73.578125 292.433594 Z M 73.578125 64.433594 " clip-rule="nonzero"/></clipPath><clipPath id="0aad00fb39"><path d="M 137 119.210938 L 238.207031 119.210938 L 238.207031 237.710938 L 137 237.710938 Z M 137 119.210938 " clip-rule="nonzero"/></clipPath><clipPath id="5629847b9b"><path d="M 166.054688 125.21875 L 208.804688 125.21875 L 208.804688 170.21875 L 166.054688 170.21875 Z M 166.054688 125.21875 " clip-rule="nonzero"/></clipPath></defs><g clip-path="url(#7ed5d480e9)"><path fill="#ddd028" d="M 187.492188 87.476562 C 237.683594 87.476562 278.371094 128.164062 278.371094 178.355469 C 278.371094 228.542969 237.683594 269.234375 187.492188 269.234375 C 137.304688 269.234375 96.613281 228.542969 96.613281 178.355469 C 96.613281 128.164062 137.304688 87.476562 187.492188 87.476562 Z M 187.492188 274.371094 C 164.054688 274.371094 141.480469 265.832031 123.9375 250.332031 C 110.707031 238.636719 100.964844 223.59375 95.765625 206.828125 L 89.582031 208.746094 C 95.132812 226.644531 105.527344 242.703125 119.648438 255.183594 C 138.378906 271.730469 162.472656 280.84375 187.492188 280.84375 Z M 280.308594 221.898438 C 286.730469 208.222656 289.988281 193.570312 289.988281 178.355469 L 283.511719 178.355469 C 283.511719 192.613281 280.460938 206.335938 274.445312 219.144531 C 262.722656 244.089844 240.863281 262.820312 214.46875 270.53125 L 216.289062 276.746094 C 244.460938 268.515625 267.792969 248.523438 280.308594 221.898438 Z M 266.730469 113.34375 C 249.285156 92.09375 224.667969 78.949219 197.414062 76.332031 C 194.136719 76.019531 190.796875 75.859375 187.492188 75.859375 L 187.492188 82.335938 C 190.59375 82.335938 193.722656 82.484375 196.796875 82.777344 C 222.320312 85.230469 245.378906 97.546875 261.726562 117.453125 Z M 124.484375 105.898438 L 120.230469 101.015625 C 97.839844 120.503906 85 148.691406 85 178.355469 L 91.476562 178.355469 C 91.476562 150.566406 103.507812 124.15625 124.484375 105.898438 Z M 301.414062 178.355469 C 301.414062 167.027344 299.753906 155.84375 296.484375 145.113281 C 292.351562 131.542969 285.777344 118.992188 276.941406 107.804688 C 255.175781 80.242188 222.574219 64.433594 187.492188 64.433594 L 187.492188 70.910156 C 220.578125 70.910156 251.328125 85.820312 271.859375 111.816406 C 280.191406 122.367188 286.390625 134.207031 290.289062 147 C 293.371094 157.121094 294.933594 167.667969 294.933594 178.355469 C 294.933594 189.867188 293.125 201.195312 289.554688 212.023438 L 295.707031 214.050781 C 299.492188 202.566406 301.414062 190.554688 301.414062 178.355469 Z M 113.257812 100.6875 C 125.746094 88.742188 141.070312 79.90625 157.574219 75.132812 L 155.777344 68.910156 C 138.273438 73.972656 122.023438 83.34375 108.78125 96.003906 C 95.84375 108.375 85.882812 123.796875 79.980469 140.601562 L 86.089844 142.75 C 91.65625 126.898438 101.050781 112.355469 113.257812 100.6875 Z M 210.761719 289.890625 C 229.726562 285.953125 247.511719 277.125 262.199219 264.355469 L 257.953125 259.46875 C 244.097656 271.511719 227.328125 279.835938 209.449219 283.546875 C 202.265625 285.039062 194.878906 285.792969 187.496094 285.792969 C 169.148438 285.792969 151.042969 281.09375 135.132812 272.195312 C 118.246094 262.75 104.1875 248.910156 94.476562 232.164062 C 85.039062 215.886719 80.050781 197.28125 80.054688 178.355469 L 73.578125 178.355469 C 73.574219 198.417969 78.863281 218.148438 88.871094 235.414062 C 99.164062 253.160156 114.066406 267.835938 131.972656 277.847656 C 148.84375 287.28125 168.042969 292.269531 187.492188 292.269531 C 195.320312 292.269531 203.148438 291.46875 210.761719 289.890625 Z M 210.761719 289.890625 " fill-opacity="1" fill-rule="nonzero"/></g><g clip-path="url(#0aad00fb39)"><path fill="#000000" d="M 228.441406 233.101562 L 196.882812 182.691406 L 199.410156 182.691406 C 216.929688 182.691406 231.136719 168.484375 231.136719 150.964844 C 231.136719 133.445312 216.929688 119.210938 199.410156 119.210938 L 137.027344 119.210938 L 137.027344 122.734375 L 146.484375 122.734375 L 146.484375 179.121094 L 137.027344 179.121094 L 137.027344 182.667969 L 146.484375 182.667969 L 146.484375 233.078125 L 137.027344 233.078125 L 137.027344 237.6875 L 174.542969 237.6875 L 174.542969 233.078125 L 165.085938 233.078125 L 165.085938 182.691406 L 177.074219 182.691406 L 208.632812 233.101562 L 200.617188 233.101562 L 200.617188 237.710938 L 238.132812 237.710938 L 238.132812 233.101562 Z M 165.085938 122.734375 L 180.546875 122.734375 C 198.0625 122.734375 212.273438 135.359375 212.273438 150.941406 C 212.273438 166.519531 198.0625 179.121094 180.546875 179.121094 L 165.085938 179.121094 Z M 165.085938 122.734375 " fill-opacity="1" fill-rule="nonzero"/></g><g clip-path="url(#5629847b9b)"><path fill="#000000" d="M 208.671875 157.386719 C 208.582031 157.285156 208.28125 157.152344 208.160156 157.09375 C 208.15625 156.792969 208.183594 156.429688 207.898438 156.277344 C 207.78125 156.214844 207.886719 156.109375 207.726562 155.816406 C 207.648438 155.683594 207.621094 155.570312 207.621094 155.421875 C 207.621094 154.929688 207.136719 154.828125 207.25 154.714844 C 207.324219 154.644531 207.3125 154.523438 207.21875 154.351562 C 207.09375 154.113281 207.007812 153.804688 206.90625 153.710938 C 206.859375 153.667969 206.820312 153.558594 206.800781 153.414062 C 206.769531 153.144531 206.6875 152.9375 206.605469 152.902344 C 206.558594 152.886719 206.542969 152.820312 206.542969 152.660156 C 206.542969 152.457031 206.53125 152.429688 206.386719 152.285156 C 206.246094 152.144531 206.234375 152.113281 206.253906 151.972656 C 206.277344 151.777344 206.214844 151.613281 206.058594 151.476562 C 205.878906 151.316406 206.03125 151.3125 205.785156 150.84375 C 205.664062 150.617188 205.625 150.496094 205.625 150.359375 C 205.625 150.148438 205.550781 149.980469 205.40625 149.867188 C 205.347656 149.820312 205.324219 149.78125 205.351562 149.769531 C 205.417969 149.75 205.363281 149.5625 205.25 149.441406 C 205.105469 149.285156 205.125 149.042969 204.929688 148.804688 C 204.820312 148.667969 204.804688 148.617188 204.816406 148.480469 C 204.835938 148.292969 204.738281 148.0625 204.570312 147.910156 C 204.390625 147.738281 204.535156 147.652344 204.390625 147.265625 C 204.300781 147.023438 203.953125 146.554688 203.867188 146.550781 C 203.820312 146.546875 203.824219 146.539062 203.878906 146.507812 C 204.023438 146.425781 203.953125 146.128906 203.726562 145.851562 C 203.597656 145.691406 203.585938 145.667969 203.609375 145.488281 C 203.632812 145.3125 203.621094 145.269531 203.488281 145.054688 C 203.402344 144.914062 203.339844 144.753906 203.332031 144.664062 C 203.320312 144.527344 203.210938 144.351562 203.085938 144.269531 C 203.054688 144.25 203.046875 144.179688 203.058594 144.082031 C 203.078125 143.9375 203.0625 143.902344 202.910156 143.71875 C 202.746094 143.523438 202.738281 143.5 202.746094 143.296875 C 202.757812 143.070312 202.695312 142.917969 202.546875 142.8125 C 202.507812 142.785156 202.464844 142.707031 202.449219 142.636719 C 202.421875 142.503906 202.25 142.195312 202.089844 141.984375 C 202.007812 141.875 202 141.851562 202.050781 141.832031 C 202.160156 141.789062 202.117188 141.621094 201.941406 141.40625 C 201.699219 141.105469 201.585938 140.933594 201.613281 140.890625 C 201.636719 140.851562 201.523438 140.714844 201.429688 140.675781 C 201.289062 140.617188 201.796875 140.53125 201.394531 140.207031 C 201.257812 140.097656 201.242188 140.070312 201.28125 140 C 201.335938 139.898438 201.296875 139.5625 201.21875 139.449219 C 201.164062 139.371094 201.167969 139.355469 201.242188 139.253906 C 201.433594 138.996094 201.167969 138.570312 200.980469 138.523438 C 200.882812 138.5 200.882812 138.492188 200.933594 138.363281 C 201.152344 137.847656 200.894531 137.253906 200.871094 137.238281 C 200.796875 137.195312 200.839844 137.113281 200.945312 137.089844 C 201.089844 137.0625 201.585938 136.640625 201.769531 136.390625 C 202.191406 135.816406 202.339844 135.0625 202.15625 134.425781 C 201.835938 133.300781 200.5625 132.792969 199.875 133.476562 C 199.691406 133.660156 199.613281 133.828125 199.578125 134.125 C 199.523438 134.554688 199.792969 135.066406 200.148438 135.214844 C 200.320312 135.289062 200.574219 135.28125 200.679688 135.246094 C 200.746094 135.226562 200.785156 135.164062 200.832031 135.117188 C 200.921875 135.015625 200.914062 134.957031 200.953125 134.953125 C 201.007812 134.949219 201.003906 135.074219 201.003906 135.105469 C 201.007812 135.207031 200.949219 135.296875 200.878906 135.367188 C 200.789062 135.410156 200.722656 135.484375 200.640625 135.542969 C 200.460938 135.675781 200.238281 135.574219 199.894531 135.476562 C 199.792969 135.445312 199.6875 135.429688 199.59375 135.375 C 199.300781 134.796875 199.316406 134.382812 198.84375 134.0625 C 198.769531 134.011719 198.738281 133.933594 198.695312 133.691406 C 198.589844 133.085938 198.386719 133.238281 198.074219 132.976562 C 197.933594 132.855469 197.671875 132.839844 197.554688 132.941406 C 197.492188 133 197.484375 133.078125 197.484375 133.589844 C 197.480469 133.980469 197.46875 134.152344 197.441406 134.113281 C 197.421875 134.078125 197.40625 134.019531 197.402344 133.984375 C 197.402344 133.859375 197.242188 133.566406 197.089844 133.414062 C 196.769531 133.09375 196.40625 133.023438 196.085938 133.230469 C 195.867188 133.367188 195.648438 133.609375 195.648438 133.714844 C 195.648438 133.804688 195.585938 133.820312 195.554688 133.738281 C 195.523438 133.660156 195.140625 133.390625 194.570312 132.859375 C 193.925781 132.257812 192.9375 131.460938 192.441406 131.140625 C 191.777344 130.707031 191.222656 130.507812 190.679688 130.507812 C 190.363281 130.503906 190.292969 130.519531 190.101562 130.617188 C 189.667969 130.839844 189.726562 130.960938 189.644531 130.824219 C 189.519531 130.605469 188.972656 130.285156 188.714844 130.285156 C 188.585938 130.285156 188.632812 130.214844 188.808594 130.140625 C 188.917969 130.097656 188.945312 130.0625 188.933594 129.996094 C 188.925781 129.9375 188.890625 129.902344 188.832031 129.894531 C 188.753906 129.882812 188.742188 129.859375 188.742188 129.683594 C 188.742188 129.515625 188.753906 129.488281 188.824219 129.488281 C 189.253906 129.488281 189.503906 128.953125 189.679688 128.617188 L 189.582031 128.515625 C 189.488281 128.410156 189.328125 128.378906 189.28125 128.453125 C 189.230469 128.535156 189.183594 128.484375 189.183594 128.351562 C 189.183594 128.179688 189.039062 128.027344 188.835938 127.988281 C 188.722656 127.96875 188.683594 127.929688 188.601562 127.769531 C 188.488281 127.546875 188.410156 127.496094 188.183594 127.496094 C 188.007812 127.496094 188.015625 127.507812 188.085938 127.265625 C 188.101562 127.199219 188.148438 127.171875 188.269531 127.152344 C 188.476562 127.117188 188.445312 127.039062 188.222656 127.023438 C 188.054688 127.011719 187.890625 126.9375 188.03125 126.9375 C 188.113281 126.9375 188.171875 126.867188 188.207031 126.722656 C 188.230469 126.625 188.226562 126.609375 188.171875 126.628906 C 188.128906 126.644531 188.113281 126.636719 188.128906 126.597656 C 188.160156 126.515625 187.960938 126.339844 187.976562 126.195312 C 187.988281 126.125 187.964844 126.089844 187.890625 126.054688 C 187.695312 125.964844 187.898438 125.773438 187.703125 125.421875 C 187.617188 125.265625 187.585938 125.242188 187.457031 125.230469 C 187.324219 125.21875 187.3125 125.226562 187.335938 125.308594 C 187.347656 125.359375 187.375 125.425781 187.398438 125.453125 C 187.445312 125.515625 187.378906 125.550781 187.289062 125.363281 C 187.253906 125.285156 187.214844 125.222656 187.207031 125.222656 C 187.199219 125.222656 187.140625 125.296875 187.074219 125.386719 C 186.988281 125.5 186.941406 125.621094 186.925781 125.765625 C 186.910156 125.882812 186.882812 125.992188 186.859375 126.003906 C 186.796875 126.042969 186.914062 126.179688 186.808594 126.179688 C 186.765625 126.179688 186.75 126.214844 186.757812 126.308594 C 186.765625 126.40625 186.746094 126.445312 186.675781 126.480469 C 186.519531 126.5625 186.496094 126.601562 186.523438 126.757812 C 186.542969 126.855469 186.582031 126.914062 186.648438 126.945312 C 186.808594 127.015625 186.761719 127.054688 186.523438 127.042969 C 186.246094 127.035156 186.199219 127.105469 186.4375 127.171875 C 186.644531 127.234375 186.707031 127.28125 186.707031 127.382812 C 186.707031 127.46875 186.5625 127.535156 186.371094 127.535156 C 186.222656 127.535156 186.15625 127.59375 186.113281 127.761719 C 186.046875 128.023438 185.429688 128.050781 185.488281 128.378906 C 185.511719 128.511719 185.460938 128.550781 185.359375 128.488281 C 185.246094 128.417969 185.078125 128.472656 185.046875 128.59375 C 185.015625 128.710938 185.058594 128.773438 185.113281 128.691406 C 185.140625 128.648438 185.148438 128.671875 185.152344 128.773438 C 185.152344 128.933594 185.320312 129.226562 185.492188 129.363281 C 185.617188 129.460938 185.75 129.449219 185.898438 129.449219 C 185.921875 129.628906 185.9375 129.863281 186.03125 129.949219 C 186.140625 130.046875 186.140625 130.132812 185.996094 129.996094 C 185.742188 129.75 185.730469 129.988281 185.910156 130.105469 C 186.0625 130.210938 186.058594 130.238281 185.886719 130.269531 C 185.550781 130.332031 185.191406 130.648438 184.945312 130.855469 L 184.835938 130.746094 C 184.585938 130.507812 184.035156 130.417969 183.570312 130.539062 C 181.949219 130.972656 179.542969 133.492188 179.230469 133.660156 C 179.167969 133.695312 179.125 133.664062 178.957031 133.492188 C 178.738281 133.257812 178.476562 133.117188 178.273438 133.117188 C 178.078125 133.117188 177.734375 133.308594 177.5625 133.515625 C 177.199219 133.953125 177.332031 134.550781 177.253906 134.550781 C 177.195312 134.550781 177.171875 134.277344 177.167969 133.652344 C 177.167969 132.941406 177.144531 132.875 176.875 132.875 C 176.605469 132.875 176.714844 132.964844 176.347656 133.132812 C 176.085938 133.25 176.011719 133.382812 175.984375 133.769531 C 175.960938 134.050781 175.960938 134.054688 175.804688 134.125 C 175.574219 134.234375 175.464844 134.414062 175.269531 134.992188 C 175.171875 135.28125 175.066406 135.566406 175.03125 135.621094 C 174.953125 135.757812 174.710938 135.925781 174.554688 135.960938 C 174.449219 135.980469 174.445312 135.980469 174.507812 135.9375 C 174.667969 135.832031 174.863281 135.667969 174.832031 135.667969 C 174.800781 135.667969 174.882812 135.605469 174.894531 135.597656 C 174.921875 135.597656 174.9375 135.578125 174.933594 135.554688 C 174.941406 135.539062 174.933594 135.53125 174.921875 135.527344 C 174.914062 135.523438 174.90625 135.515625 174.894531 135.515625 C 174.523438 135.5 174.449219 135.453125 174.417969 135.46875 C 174.0625 135.4375 173.972656 135.519531 173.671875 134.953125 C 173.667969 134.945312 173.671875 134.9375 173.660156 134.925781 C 173.625 134.882812 173.601562 134.832031 173.585938 134.777344 C 173.65625 134.625 173.738281 134.574219 173.738281 134.730469 C 173.738281 134.886719 173.882812 135.140625 174.015625 135.207031 C 174.164062 135.285156 174.464844 135.285156 174.605469 135.210938 C 175.046875 134.980469 175.273438 134.320312 175.082031 133.824219 C 174.921875 133.414062 174.375 133.105469 173.914062 133.171875 C 173.359375 133.246094 172.804688 133.71875 172.59375 134.296875 C 172.484375 134.601562 172.496094 135.40625 172.613281 135.742188 C 172.8125 136.308594 173.320312 136.890625 173.792969 137.09375 C 173.914062 137.148438 173.914062 137.136719 173.796875 137.542969 C 173.699219 137.867188 173.746094 138.207031 173.925781 138.542969 C 173.933594 138.558594 173.886719 138.582031 173.824219 138.597656 C 173.527344 138.660156 173.378906 139.027344 173.53125 139.324219 C 173.609375 139.480469 173.613281 139.5 173.554688 139.660156 C 173.414062 140.066406 173.75 139.894531 173.402344 140.238281 C 173.207031 140.429688 173.183594 140.492188 173.277344 140.570312 C 173.367188 140.644531 173.351562 140.699219 173.199219 140.851562 C 172.988281 141.054688 173.058594 141.199219 172.796875 141.519531 C 172.632812 141.71875 172.621094 141.75 172.621094 141.972656 C 172.621094 142.164062 172.601562 142.234375 172.519531 142.339844 C 172.359375 142.554688 172.4375 142.675781 172.230469 142.878906 C 172.058594 143.046875 172.007812 143.179688 172.039062 143.386719 C 172.0625 143.527344 172.046875 143.582031 171.941406 143.742188 C 171.769531 144.015625 171.871094 144.050781 171.699219 144.289062 C 171.589844 144.433594 171.578125 144.484375 171.59375 144.648438 C 171.601562 144.753906 171.59375 144.847656 171.574219 144.859375 C 171.523438 144.894531 171.382812 145.183594 171.382812 145.261719 C 171.382812 145.296875 171.328125 145.414062 171.257812 145.519531 C 171.164062 145.671875 171.128906 145.773438 171.113281 145.972656 C 171.082031 146.339844 171.023438 146.203125 171.023438 146.453125 C 171.023438 146.605469 170.992188 146.671875 170.792969 146.941406 C 170.585938 147.222656 170.5625 147.265625 170.5625 147.453125 C 170.5625 147.585938 170.539062 147.683594 170.5 147.734375 C 170.40625 147.835938 170.238281 148.179688 170.207031 148.339844 C 170.164062 148.53125 170.023438 148.785156 170.011719 148.921875 C 170.007812 148.976562 169.949219 149.070312 169.875 149.128906 C 169.757812 149.230469 169.742188 149.269531 169.71875 149.515625 C 169.695312 149.75 169.675781 149.808594 169.5625 149.929688 C 169.421875 150.085938 169.367188 150.265625 169.425781 150.375 C 169.453125 150.429688 169.433594 150.472656 169.328125 150.578125 C 169.136719 150.761719 169.054688 150.949219 169.082031 151.136719 C 169.105469 151.269531 169.089844 151.3125 168.945312 151.5 C 168.789062 151.707031 168.78125 151.722656 168.800781 151.949219 C 168.820312 152.175781 168.816406 152.195312 168.683594 152.339844 C 168.449219 152.601562 168.632812 152.625 168.46875 152.867188 C 168.425781 152.933594 168.390625 153.050781 168.386719 153.128906 C 168.386719 153.203125 168.351562 153.3125 168.308594 153.367188 C 168.175781 153.539062 168.316406 153.566406 168.046875 153.832031 C 167.792969 154.085938 167.738281 154.214844 167.761719 154.464844 C 167.78125 154.660156 167.777344 154.679688 167.667969 154.757812 C 167.503906 154.878906 167.382812 155.140625 167.371094 155.382812 C 167.359375 155.753906 167.191406 155.65625 167.191406 155.992188 C 167.191406 156.160156 167.175781 156.1875 166.972656 156.375 C 166.75 156.582031 166.671875 156.734375 166.671875 156.980469 C 166.671875 157.148438 166.636719 157.234375 166.566406 157.234375 C 166.46875 157.234375 166.203125 157.386719 166.136719 157.480469 C 166.0625 157.585938 166.054688 157.878906 166.121094 158.003906 C 166.238281 158.230469 166.753906 158.8125 167.070312 159.085938 C 168.464844 160.273438 169.871094 160.820312 172.003906 161.003906 C 172.917969 161.082031 175.691406 161.089844 176.570312 161.023438 C 177.804688 160.921875 178.707031 160.730469 179.625 160.363281 C 180.585938 159.984375 181.632812 159.273438 182.304688 158.441406 C 182.78125 157.851562 182.796875 157.820312 182.796875 157.621094 C 182.796875 157.46875 182.777344 157.425781 182.675781 157.339844 C 182.613281 157.285156 182.460938 157.21875 182.34375 157.195312 C 182.152344 157.15625 182.125 157.136719 182.089844 157.015625 C 182.066406 156.941406 182.054688 156.800781 182.066406 156.707031 C 182.085938 156.542969 182.078125 156.523438 181.914062 156.375 C 181.730469 156.210938 181.640625 156.074219 181.640625 155.960938 C 181.640625 155.859375 181.429688 155.53125 181.464844 155.472656 C 181.511719 155.398438 181.433594 155.164062 181.296875 154.964844 C 181.042969 154.589844 181.28125 154.652344 181.019531 154.1875 C 180.816406 153.820312 180.941406 153.875 180.753906 153.585938 C 180.515625 153.222656 180.726562 153.230469 180.46875 152.8125 C 180.277344 152.503906 180.363281 152.519531 180.1875 152.257812 C 180.070312 152.082031 180.054688 152.035156 180.074219 151.863281 C 180.089844 151.6875 180.078125 151.652344 179.96875 151.523438 C 179.898438 151.445312 179.84375 151.339844 179.84375 151.285156 C 179.84375 151.226562 179.792969 151.128906 179.726562 151.058594 C 179.511719 150.828125 179.683594 150.660156 179.460938 150.328125 C 179.367188 150.191406 179.347656 150.125 179.359375 149.976562 C 179.398438 149.402344 178.886719 149.335938 178.941406 149.128906 C 178.96875 149.015625 178.832031 148.722656 178.722656 148.660156 C 178.636719 148.617188 178.636719 148.609375 178.703125 148.558594 C 178.816406 148.476562 178.769531 148.148438 178.621094 147.972656 C 178.402344 147.707031 178.347656 147.871094 178.386719 147.605469 C 178.460938 147.121094 177.980469 146.554688 177.878906 146.550781 C 177.785156 146.550781 177.789062 146.46875 177.867188 146.46875 C 177.960938 146.46875 177.980469 146.371094 177.914062 146.222656 C 177.878906 146.152344 177.832031 146.019531 177.8125 145.933594 C 177.722656 145.59375 177.621094 145.683594 177.5625 145.195312 C 177.519531 144.847656 177.371094 144.523438 177.179688 144.355469 C 177.050781 144.242188 177.011719 144.160156 177.089844 144.160156 C 177.113281 144.160156 177.128906 144.105469 177.128906 144.042969 C 177.128906 143.9375 176.890625 143.574219 176.773438 143.503906 C 176.746094 143.488281 176.746094 143.445312 176.777344 143.382812 C 176.847656 143.226562 176.78125 142.949219 176.628906 142.75 C 176.554688 142.648438 176.492188 142.539062 176.492188 142.503906 C 176.492188 142.410156 176.300781 142.054688 176.226562 142.015625 C 176.175781 141.984375 176.171875 141.953125 176.203125 141.832031 C 176.261719 141.632812 176.199219 141.441406 176.035156 141.296875 C 175.960938 141.230469 175.878906 141.171875 175.851562 141.160156 C 175.824219 141.152344 175.796875 141.0625 175.785156 140.960938 C 175.761719 140.753906 175.734375 140.761719 175.566406 140.707031 C 175.707031 140.527344 175.824219 140.429688 175.566406 140.171875 C 175.457031 140.0625 175.449219 140.035156 175.488281 139.949219 C 175.554688 139.804688 175.542969 139.652344 175.453125 139.507812 C 175.382812 139.390625 175.382812 139.371094 175.4375 139.257812 C 175.546875 139.042969 175.546875 138.890625 175.445312 138.742188 C 175.222656 138.414062 175.027344 138.597656 175.148438 138.410156 C 175.292969 138.191406 175.296875 137.613281 175.15625 137.335938 C 175.078125 137.179688 175.074219 137.195312 175.195312 137.164062 C 175.253906 137.152344 175.503906 136.941406 175.753906 136.703125 C 176.261719 136.207031 176.4375 136.109375 176.78125 136.105469 C 177.570312 136.105469 177.34375 136.734375 178.929688 137.117188 C 179.707031 137.300781 180.511719 137.289062 181.210938 137.085938 L 181.558594 136.984375 C 182.1875 137.4375 182.339844 137.558594 182.746094 137.734375 C 183.410156 138.015625 183.871094 138.597656 184.734375 138.527344 C 185.015625 138.503906 185.390625 138.335938 185.53125 138.171875 C 185.644531 138.035156 185.671875 138.03125 185.671875 138.15625 C 185.671875 138.257812 185.855469 138.636719 185.988281 138.804688 C 186.0625 138.898438 186.0625 138.914062 186.011719 138.976562 C 185.933594 139.0625 185.933594 139.191406 186.007812 139.253906 C 186.09375 139.324219 186.085938 139.390625 185.96875 139.558594 C 185.914062 139.640625 185.871094 139.726562 185.871094 139.757812 C 185.871094 139.785156 185.8125 139.820312 185.738281 139.835938 C 185.402344 139.90625 185.230469 140.066406 185.230469 140.308594 C 185.230469 140.464844 185.25 140.5 185.378906 140.609375 C 185.554688 140.753906 185.761719 140.800781 185.890625 140.839844 C 185.875 141.117188 185.882812 141.4375 185.609375 141.550781 C 185.476562 141.605469 185.011719 141.976562 184.839844 142.164062 C 184.664062 142.355469 184.628906 142.539062 184.742188 142.683594 C 184.820312 142.78125 184.890625 142.773438 185.648438 142.808594 C 185.761719 142.929688 185.976562 143.179688 186.179688 143.28125 C 186.394531 143.386719 186.394531 143.445312 186.191406 143.820312 C 186.0625 144.050781 186 144.121094 185.875 144.175781 C 185.671875 144.265625 185.597656 144.398438 185.667969 144.535156 C 185.757812 144.703125 185.9375 144.691406 186.125 144.695312 C 186.382812 146.476562 186.234375 146.625 186.089844 148.601562 C 186.007812 149.773438 185.96875 149.890625 185.925781 150.4375 C 185.882812 151.035156 185.746094 150.9375 185.71875 151.472656 C 185.707031 151.652344 185.679688 151.820312 185.652344 151.851562 C 185.5625 151.957031 185.242188 152.9375 185.195312 153.246094 C 185.167969 153.410156 185.085938 153.679688 185.011719 153.847656 C 184.789062 154.339844 184.734375 155.15625 184.894531 155.609375 C 185 155.910156 184.832031 155.835938 184.832031 156.417969 C 184.832031 157.542969 185.742188 157.546875 186.015625 158.023438 C 186.21875 158.378906 186.277344 158.316406 186.15625 158.445312 C 186.0625 158.539062 186.074219 158.589844 186.191406 158.589844 C 186.230469 158.589844 186.257812 158.5625 186.253906 158.523438 C 186.25 158.488281 186.269531 158.449219 186.296875 158.441406 C 186.351562 158.421875 186.367188 158.53125 186.316406 158.566406 C 186.261719 158.597656 186.351562 159.285156 186.289062 159.382812 C 186.261719 159.429688 185.867188 159.480469 185.773438 159.585938 C 185.65625 159.710938 185.460938 160.34375 185.484375 160.515625 C 185.507812 160.691406 185.675781 160.929688 185.816406 160.984375 C 185.882812 161.007812 185.910156 161.042969 185.894531 161.089844 C 185.800781 161.453125 185.808594 161.527344 185.625 161.648438 C 185.539062 161.703125 185.46875 161.78125 185.46875 161.816406 C 185.46875 161.898438 185.417969 161.945312 184.824219 162.390625 C 184.570312 162.582031 184.277344 162.765625 184.175781 162.800781 C 183.996094 162.863281 183.984375 162.859375 183.898438 162.78125 C 183.707031 162.597656 183.503906 162.628906 183.261719 162.875 C 183.195312 162.9375 183.113281 162.976562 183.035156 162.976562 C 182.933594 162.976562 182.894531 163.003906 182.804688 163.152344 C 182.652344 163.398438 182.566406 163.351562 182.355469 163.636719 C 182.230469 163.800781 182.160156 163.855469 181.96875 163.929688 C 181.691406 164.03125 181.484375 164.21875 181.351562 164.328125 C 179.339844 164.335938 179.425781 164.3125 179.167969 164.605469 C 178.925781 164.878906 179.003906 164.738281 178.699219 164.949219 C 178.078125 165.363281 178.199219 165.015625 177.601562 165.925781 C 177.230469 166.484375 176.917969 166.820312 176.664062 167.347656 C 176.492188 167.714844 176.476562 167.769531 176.433594 168.257812 C 176.347656 169.1875 176.390625 169.550781 176.597656 169.683594 C 176.628906 169.703125 176.652344 169.742188 176.652344 169.773438 C 176.652344 169.804688 176.6875 169.832031 176.730469 169.832031 C 176.773438 169.832031 176.808594 169.855469 176.808594 169.886719 C 176.808594 169.980469 177.167969 169.972656 177.167969 170.039062 C 177.167969 170.0625 177.21875 170.070312 177.277344 170.058594 C 177.421875 170.03125 177.671875 170.132812 177.847656 170.164062 C 177.78125 170.164062 178.292969 170.21875 178.875 170.042969 C 179.34375 169.898438 178.292969 169.941406 187.375 169.964844 C 196.402344 169.992188 195.574219 169.984375 196.027344 170.082031 C 196.28125 170.140625 196.285156 170.140625 196.917969 170.074219 C 197.457031 170.015625 197.722656 170.042969 197.722656 169.992188 C 197.722656 169.96875 197.769531 169.949219 197.824219 169.949219 C 197.972656 169.949219 198.007812 169.828125 198.136719 169.78125 C 198.171875 169.765625 198.203125 169.726562 198.203125 169.691406 C 198.203125 169.65625 198.230469 169.570312 198.265625 169.503906 C 198.421875 169.207031 198.371094 168.117188 198.179688 167.613281 C 198.128906 167.472656 198.09375 167.359375 198.105469 167.359375 C 198.136719 167.359375 197.726562 166.769531 197.480469 166.460938 C 196.875 165.707031 196.84375 165.414062 196.484375 165.21875 C 196.089844 165.003906 195.628906 164.683594 195.496094 164.527344 L 195.363281 164.371094 C 193.222656 164.371094 193.207031 164.351562 193.105469 164.136719 C 193.042969 164.011719 193 163.984375 192.8125 163.929688 C 192.503906 163.847656 192.425781 163.792969 192.292969 163.574219 C 192.109375 163.277344 191.894531 163.214844 191.894531 163.082031 C 191.894531 162.957031 191.738281 162.789062 191.53125 162.695312 C 191.304688 162.59375 191.230469 162.597656 190.914062 162.714844 C 190.652344 162.816406 190.648438 162.816406 190.484375 162.742188 C 190.234375 162.632812 189.4375 162.070312 189.332031 161.933594 C 189.28125 161.867188 189.167969 161.742188 189.078125 161.652344 C 188.894531 161.480469 188.722656 161.0625 188.820312 161.027344 C 188.925781 160.996094 189.15625 160.757812 189.207031 160.632812 C 189.289062 160.441406 189.273438 160.300781 189.152344 160.125 C 189.09375 160.035156 189.050781 159.929688 189.054688 159.890625 C 189.09375 159.664062 188.914062 159.507812 188.617188 159.507812 C 188.378906 159.507812 188.292969 159.34375 188.386719 159.074219 C 188.417969 158.984375 188.417969 158.914062 188.382812 158.808594 C 188.320312 158.617188 188.382812 158.539062 188.570312 158.574219 C 188.675781 158.59375 188.703125 158.585938 188.703125 158.535156 C 188.703125 158.5 188.675781 158.46875 188.644531 158.46875 C 188.421875 158.46875 188.71875 158.164062 188.765625 157.976562 C 188.78125 157.90625 188.855469 157.847656 189.007812 157.769531 C 189.269531 157.644531 189.617188 157.316406 189.71875 157.097656 C 189.910156 156.6875 189.953125 156.175781 189.824219 155.808594 C 189.6875 155.414062 189.855469 155.660156 189.890625 154.832031 C 189.90625 154.457031 189.898438 154.375 189.824219 154.207031 C 189.667969 153.839844 189.828125 153.796875 189.621094 153.472656 C 189.46875 153.234375 189.542969 153.347656 189.359375 152.71875 C 188.898438 151.15625 189.429688 152.5 188.800781 150.613281 C 188.628906 150.097656 188.8125 150.316406 188.664062 149.480469 C 188.621094 149.21875 188.546875 148.5 188.5 147.886719 C 188.425781 146.84375 188.425781 146.753906 188.484375 146.535156 C 188.609375 146.09375 188.433594 145.992188 188.566406 145.691406 C 188.628906 145.546875 188.660156 145.003906 188.617188 144.777344 C 188.605469 144.714844 188.632812 144.695312 188.78125 144.667969 C 189.089844 144.617188 189.144531 144.457031 188.917969 144.261719 C 188.554688 143.957031 188.347656 143.707031 188.3125 143.542969 C 188.269531 143.351562 188.308594 143.28125 188.457031 143.28125 C 188.582031 143.28125 188.769531 143.066406 189.027344 142.800781 C 189.636719 142.777344 189.855469 142.78125 189.945312 142.699219 C 190.035156 142.617188 190.039062 142.480469 189.957031 142.304688 C 189.902344 142.1875 189.792969 142.089844 189.15625 141.589844 C 188.96875 141.441406 188.703125 141.070312 188.703125 140.957031 C 188.703125 140.894531 188.921875 140.757812 189.113281 140.695312 C 189.351562 140.617188 189.5 140.46875 189.5 140.3125 C 189.5 140.210938 189.464844 140.148438 189.34375 140.039062 C 188.984375 139.71875 188.894531 139.992188 188.707031 139.558594 C 188.621094 139.347656 188.617188 139.328125 188.679688 139.261719 C 188.761719 139.167969 188.761719 139.058594 188.671875 138.992188 C 188.609375 138.945312 188.609375 138.933594 188.707031 138.828125 C 188.988281 138.523438 189.003906 138.070312 189.019531 137.988281 C 189.019531 137.980469 189.082031 138.03125 189.152344 138.101562 C 189.308594 138.261719 189.539062 138.363281 189.890625 138.441406 C 190.953125 138.664062 191.085938 138.171875 191.9375 137.761719 C 192.429688 137.523438 192.75 137.308594 193.183594 137.015625 L 193.546875 137.105469 C 194.097656 137.242188 195.183594 137.261719 195.695312 137.144531 C 196.371094 136.992188 196.667969 136.851562 197.332031 136.367188 C 197.640625 136.140625 197.671875 136.128906 197.921875 136.113281 C 198.28125 136.09375 198.441406 136.179688 198.921875 136.648438 C 199.367188 137.078125 199.488281 137.101562 199.675781 137.183594 L 199.609375 137.351562 C 199.507812 137.617188 199.515625 138.15625 199.625 138.371094 C 199.703125 138.527344 199.703125 138.546875 199.644531 138.5625 C 199.40625 138.636719 199.199219 138.863281 199.199219 139.050781 C 199.199219 139.15625 199.332031 139.410156 199.410156 139.460938 C 199.433594 139.476562 199.425781 139.519531 199.382812 139.578125 C 199.34375 139.636719 199.320312 139.753906 199.320312 139.894531 C 199.320312 140.097656 199.304688 140.128906 199.179688 140.253906 C 198.910156 140.511719 199.101562 140.609375 199.214844 140.6875 L 199.105469 140.773438 C 198.949219 140.898438 198.605469 141.394531 198.578125 141.542969 C 198.566406 141.613281 198.574219 141.71875 198.597656 141.78125 C 198.683594 142 198.390625 142.035156 198.335938 142.394531 C 198.316406 142.53125 198.277344 142.605469 198.179688 142.691406 C 198.015625 142.835938 197.949219 142.996094 197.96875 143.210938 C 197.984375 143.355469 197.964844 143.414062 197.855469 143.574219 C 197.738281 143.746094 197.722656 143.800781 197.722656 144.039062 C 197.722656 144.300781 197.71875 144.3125 197.542969 144.5 C 197.332031 144.726562 197.265625 144.902344 197.296875 145.144531 C 197.34375 145.464844 197.175781 145.367188 197.082031 145.773438 C 197.011719 146.074219 196.898438 146.300781 196.871094 146.535156 C 196.824219 146.9375 196.367188 147.203125 196.367188 147.632812 C 196.367188 147.773438 196.339844 147.851562 196.261719 147.941406 C 196.144531 148.082031 196.085938 148.261719 196.085938 148.476562 C 196.085938 148.714844 195.929688 148.769531 195.898438 149.035156 C 195.878906 149.160156 195.832031 149.25 195.695312 149.394531 C 195.519531 149.582031 195.519531 149.589844 195.539062 149.8125 C 195.554688 150.019531 195.546875 150.050781 195.445312 150.167969 C 195.277344 150.359375 195.300781 150.550781 195.121094 150.804688 C 195.011719 150.953125 195 150.996094 195.015625 151.191406 C 195.03125 151.386719 195.023438 151.421875 194.9375 151.503906 C 194.777344 151.652344 194.71875 151.804688 194.746094 152.003906 C 194.765625 152.160156 194.753906 152.199219 194.652344 152.328125 C 194.589844 152.40625 194.523438 152.542969 194.507812 152.632812 C 194.464844 152.871094 194.332031 152.921875 194.332031 153.101562 C 194.332031 153.277344 194.113281 153.523438 194.078125 153.6875 C 194.0625 153.746094 193.976562 153.867188 193.882812 153.960938 C 193.714844 154.125 193.710938 154.136719 193.703125 154.410156 C 193.695312 154.789062 193.613281 155.082031 193.503906 155.175781 C 193.351562 155.296875 193.285156 155.484375 193.175781 156.070312 C 193.101562 156.476562 192.65625 156.40625 192.652344 157.046875 C 192.652344 157.15625 192.632812 157.203125 192.585938 157.21875 C 191.921875 157.429688 191.851562 157.761719 192.347656 158.371094 C 193.574219 159.878906 195.441406 160.761719 197.863281 160.984375 C 199.097656 161.09375 202.21875 161.097656 203.191406 160.984375 C 204.378906 160.847656 205.210938 160.621094 206.089844 160.195312 C 206.695312 159.902344 207.445312 159.375 207.980469 158.871094 C 208.152344 158.710938 208.664062 158.078125 208.722656 157.957031 C 208.800781 157.789062 208.777344 157.503906 208.671875 157.386719 Z M 174.171875 151.261719 C 174.246094 151.347656 174.246094 151.359375 174.183594 151.429688 C 174.101562 151.519531 174.09375 151.894531 174.171875 151.988281 C 174.214844 152.039062 174.214844 152.074219 174.160156 152.1875 C 174.078125 152.359375 174.078125 152.605469 174.160156 152.808594 C 174.210938 152.9375 174.214844 152.980469 174.175781 153.027344 C 174.09375 153.128906 174.117188 153.519531 174.214844 153.652344 L 174.300781 153.769531 L 174.214844 153.835938 C 174.074219 153.953125 174.078125 154.230469 174.191406 154.382812 C 174.160156 154.476562 174.152344 154.601562 174.179688 154.722656 C 174.175781 154.839844 174.1875 154.996094 174.210938 155.035156 C 174.234375 155.070312 174.222656 155.152344 174.183594 155.246094 C 174.0625 155.558594 174.289062 155.574219 174.136719 155.820312 C 173.988281 156.054688 174.066406 156.40625 174.273438 156.441406 C 174.316406 156.449219 174.359375 156.480469 174.367188 156.511719 C 174.382812 156.554688 174.359375 156.5625 174.261719 156.542969 C 174.121094 156.515625 174.136719 156.527344 174.085938 156.796875 C 170.71875 156.796875 167.707031 157.277344 167.703125 157.277344 C 167.054688 157.375 167.058594 157.375 167.09375 157.265625 C 167.109375 157.214844 167.125 157.171875 167.128906 157.171875 C 167.128906 157.171875 167.207031 157.121094 167.296875 157.0625 C 167.503906 156.921875 167.566406 156.804688 167.539062 156.601562 C 167.523438 156.464844 167.535156 156.429688 167.640625 156.332031 C 167.789062 156.1875 167.917969 155.9375 167.902344 155.824219 C 167.894531 155.769531 167.945312 155.667969 168.039062 155.558594 C 168.253906 155.292969 168.148438 155.234375 168.414062 154.738281 C 168.667969 154.273438 168.535156 154.253906 168.695312 154.019531 C 168.796875 153.871094 168.992188 153.625 168.960938 153.542969 C 168.949219 153.507812 168.992188 153.40625 169.0625 153.308594 C 169.300781 152.980469 169.101562 152.828125 169.296875 152.617188 C 169.417969 152.488281 169.464844 152.367188 169.464844 152.203125 C 169.464844 151.957031 169.871094 151.789062 169.8125 151.351562 C 169.792969 151.210938 169.804688 151.175781 169.886719 151.101562 C 169.941406 151.054688 169.992188 150.953125 170.007812 150.867188 C 170.042969 150.652344 170.320312 150.15625 170.386719 149.898438 C 170.460938 149.617188 170.570312 149.605469 170.621094 149.292969 C 170.691406 148.878906 170.945312 148.824219 170.945312 148.460938 C 170.945312 148.316406 170.976562 148.207031 171.0625 148.050781 C 171.246094 147.726562 171.125 147.710938 171.300781 147.488281 C 171.441406 147.316406 171.519531 147.097656 171.488281 146.976562 C 171.472656 146.914062 171.511719 146.816406 171.625 146.648438 C 171.753906 146.453125 171.78125 146.375 171.78125 146.21875 C 171.78125 146.101562 171.8125 145.964844 171.859375 145.878906 C 171.988281 145.640625 172.140625 145.269531 172.140625 145.195312 C 172.140625 145.15625 172.222656 144.972656 172.320312 144.789062 C 172.457031 144.535156 172.5 144.414062 172.5 144.273438 C 172.5 144.097656 172.554688 143.988281 172.726562 143.808594 C 172.753906 143.78125 172.820312 143.609375 172.875 143.425781 C 173.023438 142.949219 173.078125 143.085938 173.109375 142.804688 C 173.144531 142.527344 173.230469 142.496094 173.277344 142.324219 C 173.328125 142.15625 173.515625 141.816406 173.558594 141.617188 C 173.601562 141.394531 173.894531 141.09375 174.03125 140.679688 C 174.078125 140.539062 174.128906 140.617188 174.15625 140.878906 C 174.207031 141.363281 174.300781 141.246094 174.15625 141.550781 C 174.039062 141.796875 174.035156 141.839844 174.117188 142.101562 C 174.214844 142.425781 174.128906 142.5 174.277344 142.660156 C 174.402344 142.796875 174.402344 142.917969 174.273438 143.195312 C 174.179688 143.386719 174.171875 143.445312 174.195312 143.675781 C 174.207031 143.820312 174.21875 143.992188 174.214844 144.058594 C 174.207031 144.355469 174.175781 144.917969 174.152344 145.125 C 174.105469 145.574219 174.320312 145.429688 174.199219 145.667969 C 173.972656 146.105469 174.261719 146.351562 174.175781 146.511719 C 174.117188 146.621094 174.128906 146.769531 174.203125 146.925781 C 174.265625 147.058594 174.265625 147.070312 174.199219 147.144531 C 174.085938 147.273438 174.183594 147.484375 174.167969 147.726562 C 174.152344 148.074219 174.191406 148.953125 174.152344 149.292969 C 174.132812 149.460938 174.144531 149.527344 174.210938 149.636719 C 174.277344 149.75 174.28125 149.78125 174.234375 149.820312 C 174.097656 149.933594 174.140625 150.375 174.296875 150.457031 C 174.402344 150.515625 174.398438 150.578125 174.285156 150.566406 C 174.21875 150.558594 174.1875 150.585938 174.148438 150.695312 C 174.074219 150.910156 174.085938 151.152344 174.171875 151.261719 Z M 175.148438 141.207031 C 175.214844 141.429688 175.367188 141.648438 175.457031 141.648438 C 175.492188 141.648438 175.488281 141.664062 175.453125 141.707031 C 175.367188 141.808594 175.550781 142.300781 175.6875 142.335938 C 175.734375 142.347656 175.773438 142.4375 175.824219 142.648438 C 175.921875 143.066406 175.859375 143.015625 176.011719 143.253906 C 176.246094 143.625 176.023438 143.703125 176.238281 143.960938 C 176.476562 144.242188 176.226562 144.179688 176.515625 144.597656 C 176.636719 144.777344 176.65625 144.828125 176.636719 144.957031 C 176.589844 145.230469 176.804688 145.246094 176.894531 145.671875 C 177.019531 146.285156 177.21875 146.132812 177.179688 146.488281 C 177.160156 146.648438 177.171875 146.679688 177.324219 146.859375 C 177.464844 147.023438 177.484375 147.074219 177.464844 147.175781 C 177.4375 147.320312 177.527344 147.519531 177.667969 147.609375 C 177.753906 147.667969 177.765625 147.695312 177.746094 147.824219 C 177.707031 148.042969 177.789062 148.285156 177.929688 148.386719 C 178.019531 148.449219 178.042969 148.492188 178.027344 148.546875 C 177.984375 148.679688 178.046875 148.855469 178.210938 149.0625 C 178.34375 149.230469 178.367188 149.289062 178.367188 149.453125 C 178.367188 149.699219 178.394531 149.617188 178.523438 149.945312 C 178.679688 150.335938 178.765625 150.203125 178.765625 150.492188 C 178.765625 150.707031 178.875 150.914062 179.023438 150.984375 C 179.140625 151.035156 179.144531 151.050781 179.066406 151.160156 C 178.980469 151.28125 179.03125 151.628906 179.152344 151.773438 C 179.21875 151.851562 179.246094 151.933594 179.246094 152.054688 C 179.246094 152.253906 179.363281 152.46875 179.523438 152.550781 C 179.625 152.601562 179.636719 152.628906 179.652344 152.875 C 179.667969 153.128906 179.675781 153.148438 179.835938 153.289062 C 179.984375 153.421875 179.996094 153.449219 179.96875 153.550781 C 179.90625 153.777344 180.078125 154.085938 180.265625 154.085938 C 180.351562 154.085938 180.355469 154.101562 180.351562 154.335938 C 180.34375 154.625 180.410156 154.761719 180.601562 154.847656 C 180.738281 154.910156 180.746094 154.929688 180.660156 155 C 180.582031 155.066406 180.585938 155.160156 180.679688 155.378906 C 180.828125 155.722656 181 155.582031 181 155.832031 C 181 155.996094 181.058594 156.113281 181.191406 156.226562 C 181.308594 156.324219 181.292969 156.347656 181.273438 156.792969 C 181.386719 156.902344 181.679688 157.160156 181.679688 157.269531 C 181.679688 157.359375 181.664062 157.367188 181.535156 157.316406 C 181.324219 157.230469 178.519531 156.875 175.253906 156.785156 C 174.914062 156.773438 174.960938 156.78125 174.773438 156.5 L 174.871094 156.410156 C 175 156.292969 175.039062 156.050781 174.960938 155.863281 C 174.925781 155.785156 174.878906 155.71875 174.855469 155.71875 C 174.785156 155.71875 174.808594 155.621094 174.894531 155.570312 C 174.996094 155.503906 175 155.324219 174.898438 155.128906 C 174.824219 154.984375 174.824219 154.980469 174.898438 154.886719 C 174.984375 154.78125 174.996094 154.578125 174.929688 154.425781 C 174.894531 154.347656 174.898438 154.300781 174.949219 154.191406 C 175.164062 153.742188 174.71875 153.816406 174.914062 153.621094 C 175.015625 153.519531 174.992188 153.195312 174.871094 153.054688 C 174.773438 152.9375 174.773438 152.933594 174.851562 152.890625 C 175.011719 152.804688 175.042969 152.4375 174.90625 152.21875 C 174.855469 152.136719 174.855469 152.117188 174.910156 152.058594 C 175.054688 151.894531 175.019531 151.546875 174.832031 151.375 C 174.734375 151.28125 174.734375 151.277344 174.8125 151.246094 C 174.980469 151.183594 175.03125 150.792969 174.894531 150.617188 C 174.8125 150.511719 174.792969 150.417969 174.851562 150.417969 C 174.917969 150.417969 174.984375 150.175781 174.964844 150.015625 C 174.917969 149.679688 174.730469 149.777344 174.875 149.621094 C 174.980469 149.503906 175.003906 149.132812 174.914062 149 C 174.851562 148.898438 174.851562 148.886719 174.917969 148.738281 C 175.058594 148.421875 174.820312 148.289062 174.933594 147.945312 C 175.035156 147.636719 174.835938 147.699219 174.9375 147.414062 C 174.988281 147.269531 174.972656 147.199219 174.847656 147.019531 C 174.804688 146.964844 174.808594 146.941406 174.871094 146.894531 C 174.972656 146.824219 174.972656 146.53125 174.875 146.363281 C 174.804688 146.242188 174.804688 146.238281 174.886719 146.128906 C 174.988281 146.003906 174.996094 145.847656 174.917969 145.660156 C 174.875 145.550781 174.875 145.511719 174.917969 145.429688 C 175 145.285156 174.984375 145.035156 174.890625 144.878906 L 174.808594 144.742188 C 174.972656 144.414062 174.984375 144.429688 174.914062 144.25 C 174.859375 144.109375 174.859375 144.082031 174.914062 143.976562 C 174.988281 143.828125 174.992188 143.609375 174.914062 143.480469 C 174.882812 143.421875 174.855469 143.371094 174.832031 143.320312 C 174.851562 143.25 174.867188 143.179688 174.875 143.105469 C 174.96875 142.929688 174.875 142.660156 174.773438 142.601562 C 174.691406 142.558594 174.691406 142.558594 174.789062 142.441406 C 174.84375 142.378906 174.910156 142.261719 174.9375 142.179688 C 174.992188 142.007812 174.96875 141.617188 174.890625 141.496094 C 174.796875 141.347656 174.949219 140.960938 174.90625 140.707031 C 174.878906 140.535156 174.972656 140.503906 174.972656 140.609375 C 174.972656 140.714844 175.050781 140.878906 175.148438 141.207031 Z M 186.136719 135.496094 C 186.121094 135.578125 186.0625 135.71875 186 135.804688 C 185.859375 136.007812 185.410156 136.351562 185.082031 136.503906 C 185.082031 136.5 184.835938 136.625 184.820312 136.625 C 184.8125 136.625 184.765625 136.582031 184.714844 136.527344 C 184.625 136.429688 184.621094 136.417969 184.667969 136.136719 C 184.710938 135.851562 184.703125 135.789062 184.59375 135.417969 C 184.535156 135.222656 183.800781 134.453125 183.574219 134.347656 C 183.273438 134.207031 182.738281 134.277344 182.382812 134.5 C 181.917969 134.792969 181.753906 135.128906 181.667969 135.273438 L 181.542969 135.15625 C 181.351562 134.972656 180.921875 134.710938 180.734375 134.664062 C 180.636719 134.640625 180.5625 134.609375 180.5625 134.589844 C 180.5625 134.574219 180.652344 134.539062 180.757812 134.511719 C 180.972656 134.460938 181.328125 134.261719 181.542969 134.074219 C 181.71875 133.921875 181.949219 133.832031 182.164062 133.753906 C 182.289062 133.707031 182.410156 133.640625 182.535156 133.59375 C 182.925781 133.441406 182.78125 133.574219 183.476562 133.191406 C 183.476562 132.789062 183.417969 132.363281 184.359375 132.199219 C 184.777344 132.125 184.769531 132.121094 184.757812 132.542969 C 184.746094 132.945312 184.792969 133.113281 184.992188 133.363281 C 185.128906 133.535156 185.132812 133.554688 185.046875 133.722656 C 184.867188 134.074219 185.421875 134.09375 185.738281 134.433594 C 185.855469 134.558594 185.867188 134.59375 185.867188 134.824219 C 185.871094 135.066406 185.878906 135.085938 186.015625 135.210938 C 186.144531 135.332031 186.15625 135.359375 186.136719 135.496094 Z M 193.832031 134.664062 C 193.671875 134.722656 193.152344 135.117188 193.121094 135.207031 C 193.082031 135.304688 193.019531 135.28125 192.949219 135.144531 C 192.863281 134.972656 192.589844 134.6875 192.386719 134.542969 C 192.019531 134.292969 191.480469 134.199219 191.15625 134.335938 C 190.96875 134.414062 190.300781 135.078125 190.203125 135.285156 C 190.109375 135.484375 190.078125 135.839844 190.136719 136.101562 C 190.199219 136.394531 190.121094 136.46875 190.140625 136.46875 C 190.101562 136.609375 190.085938 136.625 189.96875 136.621094 C 189.488281 136.609375 188.636719 135.933594 188.539062 135.679688 C 188.519531 135.625 188.503906 135.507812 188.503906 135.414062 C 188.503906 135.257812 188.515625 135.242188 188.640625 135.195312 C 188.800781 135.136719 188.839844 135.046875 188.804688 134.804688 C 188.777344 134.636719 188.785156 134.625 188.96875 134.429688 C 189.351562 134.035156 189.671875 134.085938 189.691406 133.851562 C 189.699219 133.777344 189.679688 133.707031 189.644531 133.675781 C 189.558594 133.605469 189.566406 133.5 189.664062 133.410156 C 189.710938 133.371094 189.796875 133.246094 189.855469 133.136719 C 189.949219 132.957031 189.960938 132.898438 189.953125 132.546875 C 189.949219 132.101562 189.910156 132.132812 190.390625 132.21875 C 190.722656 132.277344 191 132.414062 191.132812 132.582031 C 191.230469 132.707031 191.21875 132.839844 191.21875 133.191406 C 191.871094 133.546875 192.554688 133.738281 192.714844 133.828125 C 193.222656 134.113281 193.4375 134.386719 193.785156 134.472656 C 194.007812 134.53125 194.023438 134.597656 193.832031 134.664062 Z M 200.066406 143.109375 C 199.9375 143.1875 199.792969 143.671875 199.867188 143.769531 C 199.941406 143.863281 199.953125 144.019531 199.898438 144.179688 C 199.792969 144.484375 199.972656 144.582031 199.882812 144.878906 C 199.820312 145.085938 199.828125 145.320312 199.902344 145.425781 C 199.957031 145.507812 199.957031 145.53125 199.878906 145.6875 C 199.660156 146.144531 199.984375 146.199219 199.882812 146.417969 C 199.820312 146.550781 199.828125 146.789062 199.894531 146.910156 C 199.945312 146.996094 199.941406 147.027344 199.867188 147.160156 C 199.792969 147.289062 199.789062 147.324219 199.832031 147.445312 C 199.871094 147.550781 199.871094 147.601562 199.832031 147.683594 C 199.734375 147.898438 199.921875 147.894531 199.832031 148.238281 C 199.730469 148.609375 199.914062 148.402344 199.835938 149.058594 C 199.753906 149.722656 199.957031 149.523438 199.820312 149.863281 C 199.691406 150.183594 199.84375 150.34375 199.964844 150.496094 L 199.859375 150.621094 C 199.722656 150.78125 199.714844 151.105469 199.84375 151.238281 L 199.925781 151.328125 L 199.84375 151.449219 C 199.722656 151.617188 199.726562 151.867188 199.859375 151.996094 L 199.960938 152.097656 L 199.859375 152.21875 C 199.738281 152.359375 199.722656 152.625 199.824219 152.835938 C 199.882812 152.960938 199.882812 152.988281 199.828125 153.105469 C 199.761719 153.242188 199.785156 153.53125 199.871094 153.617188 C 199.9375 153.683594 199.925781 153.773438 199.835938 153.886719 C 199.714844 154.042969 199.742188 154.273438 199.90625 154.4375 C 199.953125 154.484375 199.949219 154.507812 199.894531 154.59375 C 199.765625 154.792969 199.976562 154.867188 199.875 155.226562 C 199.832031 155.390625 199.832031 155.425781 199.898438 155.546875 C 200.023438 155.777344 199.890625 155.660156 199.851562 156.054688 C 199.828125 156.246094 199.835938 156.269531 199.953125 156.386719 C 200.074219 156.507812 200.078125 156.515625 200 156.554688 C 199.953125 156.578125 199.90625 156.644531 199.894531 156.695312 C 199.871094 156.789062 199.855469 156.796875 199.5625 156.800781 C 196.3125 156.84375 193.40625 157.269531 193.398438 157.296875 C 193.011719 157.367188 193.011719 157.367188 193.011719 157.292969 C 193.011719 157.207031 193.28125 157.078125 193.460938 156.898438 C 193.566406 156.792969 193.578125 156.757812 193.5625 156.589844 C 193.546875 156.425781 193.558594 156.386719 193.644531 156.308594 C 193.746094 156.214844 193.890625 155.917969 193.890625 155.804688 C 193.890625 155.769531 193.945312 155.671875 194.011719 155.589844 C 194.207031 155.355469 194.324219 155 194.207031 155 C 194.183594 155 194.210938 154.945312 194.269531 154.875 C 194.605469 154.480469 194.503906 154.1875 194.667969 154.003906 C 195.058594 153.570312 194.753906 153.515625 195.003906 153.277344 C 195.253906 153.042969 195.101562 152.710938 195.230469 152.664062 C 195.324219 152.628906 195.488281 152.320312 195.488281 152.175781 C 195.488281 152.097656 195.539062 151.972656 195.632812 151.839844 C 195.761719 151.652344 195.773438 151.617188 195.757812 151.414062 C 195.742188 151.246094 195.753906 151.171875 195.808594 151.09375 C 195.902344 150.960938 195.960938 150.664062 196.101562 150.402344 C 196.261719 150.101562 196.148438 150.1875 196.335938 149.910156 C 196.582031 149.546875 196.367188 149.410156 196.574219 149.136719 C 196.882812 148.734375 196.667969 148.613281 196.863281 148.378906 C 196.921875 148.308594 196.96875 148.191406 196.984375 148.074219 C 197.007812 147.894531 197.085938 147.710938 197.304688 147.3125 C 197.476562 147 197.316406 147.007812 197.539062 146.679688 C 197.71875 146.410156 197.683594 146.3125 197.800781 145.953125 C 197.941406 145.519531 197.953125 145.347656 198.210938 144.800781 C 198.375 144.445312 198.402344 144.363281 198.378906 144.222656 C 198.332031 143.894531 198.511719 144.121094 198.707031 143.480469 C 198.761719 143.296875 198.824219 143.121094 198.84375 143.097656 C 198.894531 143.035156 198.972656 142.597656 199.105469 142.421875 C 199.234375 142.253906 199.121094 142.296875 199.421875 141.660156 C 199.742188 140.976562 199.746094 140.691406 199.800781 140.691406 C 199.84375 140.691406 199.863281 140.972656 199.933594 141.269531 C 200.03125 141.671875 199.8125 141.484375 199.851562 141.90625 C 199.921875 142.582031 199.929688 142.625 200.023438 142.710938 C 200.128906 142.808594 200.152344 143.054688 200.066406 143.109375 Z M 207.808594 157.332031 C 207.808594 157.363281 207.726562 157.410156 207.695312 157.375 C 207.527344 157.210938 202.707031 156.800781 200.886719 156.796875 C 200.75 156.796875 200.714844 156.78125 200.714844 156.722656 C 200.714844 156.621094 200.542969 156.46875 200.460938 156.5 C 200.375 156.53125 200.363281 156.4375 200.496094 156.4375 C 200.722656 156.4375 200.828125 155.941406 200.640625 155.742188 L 200.550781 155.648438 L 200.632812 155.5625 C 200.753906 155.445312 200.742188 155.230469 200.613281 155.109375 L 200.511719 155.015625 L 200.59375 154.945312 C 200.695312 154.851562 200.707031 154.527344 200.617188 154.390625 C 200.5625 154.304688 200.5625 154.292969 200.636719 154.226562 C 200.734375 154.136719 200.742188 153.9375 200.652344 153.8125 C 200.601562 153.738281 200.597656 153.699219 200.632812 153.609375 C 200.703125 153.445312 200.695312 153.175781 200.621094 153.09375 C 200.539062 153.003906 200.539062 152.929688 200.617188 152.820312 C 200.652344 152.769531 200.691406 152.644531 200.703125 152.535156 C 200.722656 152.367188 200.714844 152.328125 200.632812 152.25 C 200.546875 152.160156 200.546875 152.152344 200.609375 152.042969 C 200.707031 151.875 200.699219 151.542969 200.59375 151.433594 C 200.519531 151.351562 200.519531 151.339844 200.574219 151.203125 C 200.660156 150.996094 200.660156 150.773438 200.574219 150.640625 C 200.507812 150.539062 200.507812 150.519531 200.5625 150.425781 C 200.691406 150.203125 200.679688 149.9375 200.542969 149.851562 C 200.507812 149.828125 200.519531 149.777344 200.585938 149.664062 C 200.6875 149.480469 200.703125 149.234375 200.617188 149.121094 C 200.542969 149.019531 200.542969 148.902344 200.617188 148.804688 C 200.695312 148.703125 200.691406 148.527344 200.609375 148.359375 C 200.554688 148.242188 200.550781 148.199219 200.59375 148.066406 C 200.710938 147.714844 200.464844 147.554688 200.617188 147.386719 C 200.6875 147.308594 200.6875 147.300781 200.601562 147.1875 C 200.511719 147.066406 200.488281 146.929688 200.554688 146.890625 C 200.628906 146.84375 200.640625 146.636719 200.578125 146.511719 C 200.519531 146.398438 200.519531 146.375 200.582031 146.195312 C 200.644531 146.023438 200.648438 145.964844 200.605469 145.761719 C 200.5625 145.558594 200.566406 145.507812 200.621094 145.398438 C 200.691406 145.253906 200.675781 145.113281 200.570312 144.886719 C 200.511719 144.769531 200.511719 144.726562 200.554688 144.621094 C 200.640625 144.402344 200.648438 144.320312 200.578125 144.214844 C 200.511719 144.117188 200.511719 144.101562 200.59375 143.882812 C 200.679688 143.65625 200.679688 143.652344 200.605469 143.457031 C 200.492188 143.167969 200.503906 142.625 200.625 142.472656 C 200.789062 142.261719 200.796875 141.660156 200.640625 141.445312 C 200.480469 141.226562 200.710938 141.25 200.660156 140.824219 C 200.628906 140.554688 200.6875 140.523438 200.777344 140.761719 C 201.078125 141.566406 201.285156 141.515625 201.296875 141.820312 C 201.304688 142 201.535156 142.441406 201.625 142.441406 C 201.734375 142.445312 201.667969 142.828125 201.933594 143.230469 C 202.234375 143.683594 201.867188 143.671875 202.398438 144.160156 C 202.460938 144.21875 202.460938 144.226562 202.398438 144.265625 C 202.339844 144.300781 202.339844 144.3125 202.398438 144.402344 C 202.496094 144.554688 202.558594 144.875 202.675781 144.980469 C 202.777344 145.074219 202.871094 145.289062 202.871094 145.4375 C 202.871094 145.585938 202.9375 145.753906 203.039062 145.863281 C 203.109375 145.9375 203.125 145.996094 203.117188 146.207031 C 203.109375 146.457031 203.113281 146.464844 203.265625 146.601562 C 203.410156 146.734375 203.417969 146.753906 203.402344 146.917969 C 203.378906 147.125 203.445312 147.285156 203.65625 147.519531 C 203.925781 147.820312 203.617188 147.773438 203.867188 148.152344 C 204.070312 148.457031 204 148.726562 204.164062 148.898438 C 204.351562 149.101562 204.289062 149.371094 204.515625 149.5625 C 204.636719 149.664062 204.648438 149.6875 204.648438 149.921875 C 204.648438 150.140625 204.660156 150.1875 204.757812 150.289062 C 204.839844 150.375 204.867188 150.441406 204.867188 150.570312 C 204.867188 150.773438 204.953125 150.960938 205.066406 150.996094 C 205.113281 151.011719 205.148438 151.058594 205.148438 151.109375 C 205.164062 151.527344 205.1875 151.664062 205.261719 151.789062 C 205.425781 152.050781 205.503906 151.867188 205.503906 152.144531 C 205.503906 152.34375 205.625 152.558594 205.765625 152.609375 C 205.855469 152.644531 205.863281 152.667969 205.863281 152.90625 C 205.863281 153.125 205.878906 153.179688 205.96875 153.285156 C 206.027344 153.355469 206.058594 153.378906 206.089844 153.394531 C 206.085938 153.457031 206.101562 153.523438 206.125 153.582031 C 206.078125 153.679688 206.164062 153.890625 206.34375 154.070312 C 206.484375 154.207031 206.496094 154.238281 206.476562 154.371094 C 206.445312 154.574219 206.519531 154.765625 206.679688 154.890625 C 206.808594 154.992188 206.816406 155.015625 206.808594 155.210938 C 206.804688 155.375 206.824219 155.449219 206.894531 155.550781 C 206.945312 155.621094 207.011719 155.679688 207.039062 155.679688 C 207.140625 155.679688 207.113281 156.144531 207.363281 156.238281 C 207.449219 156.273438 207.460938 156.292969 207.4375 156.429688 C 207.359375 156.921875 207.839844 157.230469 207.808594 157.332031 Z M 207.808594 157.332031 " fill-opacity="1" fill-rule="nonzero"/></g></svg>