<svg xmlns="http://www.w3.org/2000/svg" xmlns:xlink="http://www.w3.org/1999/xlink" width="3780" zoomAndPan="magnify" viewBox="0 0 2835 1417.499962" height="1890" preserveAspectRatio="xMidYMid meet" version="1.0"><defs><clipPath id="8643c9a11a"><path d="M 1115.285156 425.046875 L 1719.574219 425.046875 L 1719.574219 991.847656 L 1115.285156 991.847656 Z M 1115.285156 425.046875 " clip-rule="nonzero"/></clipPath></defs><g clip-path="url(#8643c9a11a)"><path fill="#000000" d="M 1317.039062 784.9375 C 1316.429688 783.796875 1316.867188 782.363281 1318.007812 781.753906 C 1319.167969 781.148438 1320.585938 781.582031 1321.191406 782.726562 L 1328.691406 796.847656 C 1329.296875 797.992188 1328.863281 799.425781 1327.722656 800.03125 C 1327.375 800.21875 1326.996094 800.308594 1326.621094 800.308594 C 1325.78125 800.308594 1324.972656 799.859375 1324.550781 799.0625 L 1317.054688 784.9375 Z M 1483.691406 762.640625 C 1483.980469 762.753906 1484.269531 762.8125 1484.558594 762.8125 C 1485.488281 762.8125 1486.371094 762.25 1486.746094 761.335938 L 1492.042969 748.097656 C 1492.519531 746.894531 1491.941406 745.519531 1490.726562 745.042969 C 1489.523438 744.566406 1488.148438 745.144531 1487.671875 746.359375 L 1482.375 759.601562 C 1481.898438 760.800781 1482.476562 762.175781 1483.691406 762.652344 Z M 1460.417969 826.890625 C 1460.242188 825.601562 1459.042969 824.71875 1457.769531 824.878906 C 1456.480469 825.050781 1455.582031 826.238281 1455.757812 827.527344 L 1458.101562 844.441406 L 1459.273438 859.433594 C 1459.375 860.664062 1460.402344 861.605469 1461.617188 861.605469 C 1461.675781 861.605469 1461.75 861.605469 1461.808594 861.605469 C 1463.09375 861.503906 1464.066406 860.375 1463.964844 859.074219 L 1462.777344 843.9375 L 1460.417969 826.875 Z M 1386.5 775.53125 C 1386.6875 775.578125 1386.875 775.605469 1387.050781 775.605469 C 1388.105469 775.605469 1389.074219 774.882812 1389.335938 773.8125 L 1392.867188 759.253906 C 1392.867188 759.253906 1392.898438 759.136719 1392.898438 759.078125 L 1396.863281 735.261719 C 1397.078125 733.988281 1396.210938 732.773438 1394.9375 732.554688 C 1393.648438 732.339844 1392.449219 733.207031 1392.230469 734.480469 L 1388.28125 758.210938 L 1384.761719 772.683594 C 1384.457031 773.941406 1385.226562 775.214844 1386.5 775.519531 Z M 1314.476562 812 L 1322.859375 825.226562 C 1323.304688 825.933594 1324.074219 826.3125 1324.839844 826.3125 C 1325.273438 826.3125 1325.707031 826.195312 1326.101562 825.949219 C 1327.199219 825.253906 1327.519531 823.808594 1326.824219 822.707031 L 1318.644531 809.800781 L 1313.449219 788.121094 C 1313.144531 786.863281 1311.871094 786.082031 1310.613281 786.386719 C 1309.351562 786.691406 1308.570312 787.964844 1308.875 789.222656 L 1314.171875 811.277344 C 1314.230469 811.523438 1314.332031 811.769531 1314.476562 811.984375 Z M 1402.058594 768.09375 C 1402.160156 768.09375 1402.261719 768.09375 1402.347656 768.082031 C 1403.636719 767.921875 1404.546875 766.75 1404.390625 765.460938 L 1403.101562 755.1875 L 1406.140625 733.886719 C 1406.328125 732.597656 1405.429688 731.410156 1404.144531 731.222656 C 1402.855469 731.050781 1401.667969 731.933594 1401.480469 733.21875 L 1398.398438 754.839844 C 1398.367188 755.042969 1398.367188 755.257812 1398.398438 755.460938 L 1399.714844 766.054688 C 1399.859375 767.242188 1400.871094 768.109375 1402.042969 768.109375 Z M 1718.675781 561.84375 C 1719.5 563.726562 1719.152344 565.839844 1717.765625 567.371094 L 1712.03125 573.695312 C 1711.003906 574.824219 1709.527344 575.476562 1707.980469 575.476562 L 1631.078125 575.476562 C 1630.933594 575.925781 1630.660156 576.328125 1630.253906 576.632812 L 1604.40625 595.910156 L 1579.566406 622.910156 L 1568.667969 641.230469 L 1561.140625 653.183594 C 1560.984375 653.445312 1560.765625 653.675781 1560.503906 653.847656 C 1560.390625 653.9375 1548.609375 662.226562 1543.453125 666.523438 C 1538.605469 670.5625 1521.945312 685.65625 1519.542969 687.8125 L 1509.367188 706.042969 L 1507.226562 722.351562 C 1507.066406 723.523438 1506.070312 724.394531 1504.894531 724.394531 C 1504.851562 724.394531 1504.792969 724.394531 1504.738281 724.394531 L 1500.902344 724.148438 L 1496.878906 741.265625 C 1496.863281 741.339844 1496.820312 741.398438 1496.789062 741.46875 L 1501.421875 744.855469 C 1502.261719 745.464844 1502.59375 746.5625 1502.246094 747.53125 L 1492.101562 776.199219 C 1491.882812 776.804688 1491.433594 777.285156 1490.855469 777.558594 C 1490.550781 777.703125 1490.21875 777.777344 1489.886719 777.777344 C 1489.597656 777.777344 1489.292969 777.71875 1489.019531 777.617188 C 1489.019531 777.617188 1488.4375 777.386719 1487.457031 776.996094 L 1485.660156 792.769531 C 1487.933594 794.578125 1489.121094 795.617188 1489.25 795.734375 C 1489.785156 796.226562 1490.074219 796.921875 1490.015625 797.644531 C 1489.960938 798.367188 1489.582031 799.035156 1488.976562 799.425781 L 1467.074219 814.023438 C 1467.496094 816.414062 1472.027344 842.429688 1476.308594 868.550781 C 1485.488281 924.4375 1484.648438 926.113281 1484.039062 927.332031 C 1482.171875 931.0625 1468.464844 934.347656 1457.148438 936.460938 L 1460.460938 972.378906 C 1460.5625 973.535156 1459.824219 974.59375 1458.695312 974.867188 C 1456.074219 975.53125 1394.242188 991.261719 1377.816406 991.261719 C 1368.566406 991.261719 1351.34375 988.382812 1339.402344 985.921875 C 1312.046875 980.277344 1311.726562 977.6875 1311.511719 975.964844 C 1311.277344 974.15625 1311.351562 965.996094 1311.511719 952.800781 C 1311.597656 944.476562 1311.710938 934.132812 1311.554688 932.902344 L 1311.566406 932.902344 C 1311.335938 931.296875 1310.582031 923.597656 1309.324219 909.90625 L 1301.8125 912.960938 C 1299.683594 913.945312 1297.414062 914.421875 1295.140625 914.421875 C 1291.507812 914.421875 1287.902344 913.191406 1284.9375 910.777344 L 1176.046875 822.476562 L 1172.359375 914.019531 C 1172.300781 915.277344 1171.273438 916.273438 1170.011719 916.273438 C 1169.984375 916.273438 1169.953125 916.273438 1169.910156 916.273438 C 1168.609375 916.21875 1167.609375 915.132812 1167.652344 913.828125 L 1171.621094 815.457031 L 1176.425781 613.433594 L 1117.167969 593.289062 C 1115.9375 592.871094 1115.285156 591.539062 1115.707031 590.308594 C 1116.125 589.078125 1117.457031 588.425781 1118.6875 588.847656 L 1179.523438 609.570312 C 1179.523438 609.570312 1179.535156 609.570312 1179.550781 609.570312 L 1179.566406 609.570312 C 1179.566406 609.570312 1179.566406 609.582031 1179.578125 609.582031 C 1179.78125 609.65625 1179.984375 609.757812 1180.160156 609.886719 C 1180.1875 609.902344 1180.21875 609.914062 1180.246094 609.945312 C 1180.40625 610.074219 1180.5625 610.234375 1180.695312 610.40625 C 1180.722656 610.453125 1180.753906 610.496094 1180.765625 610.523438 C 1180.808594 610.582031 1180.855469 610.640625 1180.898438 610.710938 C 1206.53125 660.59375 1255.367188 755.5625 1256.710938 757.921875 C 1258.128906 760.28125 1273.675781 778.917969 1276.714844 780.308594 C 1279.449219 781.335938 1292.417969 787.355469 1298.65625 790.277344 L 1297.789062 780.511719 C 1297.6875 779.351562 1298.453125 778.28125 1299.582031 778.023438 L 1310.25 775.460938 L 1347 753.160156 L 1396.398438 722.730469 C 1396.515625 722.65625 1396.644531 722.597656 1396.777344 722.542969 C 1403.664062 719.835938 1419.992188 713.554688 1422.785156 713.554688 C 1424.625 713.554688 1425.578125 714.988281 1426.113281 716.578125 L 1434.554688 712.46875 C 1435.203125 712.152344 1435.957031 712.152344 1436.609375 712.46875 C 1437.160156 712.746094 1437.5625 713.222656 1437.78125 713.785156 L 1445.957031 706.636719 C 1446.785156 705.914062 1448 705.855469 1448.898438 706.507812 L 1455.582031 711.398438 L 1456.855469 709.574219 L 1453.5 707.855469 C 1452.90625 707.550781 1452.472656 707.015625 1452.296875 706.363281 C 1452.125 705.710938 1452.238281 705.03125 1452.601562 704.480469 L 1458.839844 694.917969 L 1458.839844 677.089844 L 1460.605469 649.144531 C 1460.605469 648.988281 1460.636719 648.84375 1460.679688 648.699219 C 1463.183594 639.160156 1466.945312 622.605469 1466.367188 618.773438 C 1465.671875 614.273438 1455.078125 586.066406 1451.054688 575.589844 C 1451.054688 575.5625 1451.039062 575.519531 1451.023438 575.476562 L 1387.816406 575.476562 C 1386.269531 575.476562 1384.777344 574.824219 1383.765625 573.695312 L 1378.03125 567.359375 C 1376.644531 565.824219 1376.296875 563.710938 1377.121094 561.828125 C 1377.527344 560.902344 1378.164062 560.152344 1378.957031 559.617188 L 1378.03125 558.589844 C 1376.644531 557.054688 1376.296875 554.941406 1377.121094 553.058594 C 1377.988281 551.105469 1379.886719 549.890625 1382.085938 549.890625 L 1393.300781 549.890625 C 1394.445312 496.539062 1457.929688 452.980469 1537.753906 449.539062 L 1537.753906 446.789062 C 1535.769531 446.789062 1533.640625 446.773438 1531.355469 446.757812 C 1530.066406 446.757812 1529.007812 445.703125 1529.007812 444.414062 C 1529.007812 434.011719 1537.476562 425.53125 1547.898438 425.53125 C 1558.320312 425.53125 1566.785156 433.996094 1566.785156 444.414062 C 1566.785156 445.035156 1566.539062 445.644531 1566.09375 446.078125 C 1565.613281 446.554688 1565.382812 446.757812 1558.042969 446.800781 L 1558.042969 449.539062 C 1637.855469 452.964844 1701.335938 496.539062 1702.496094 549.890625 L 1713.710938 549.890625 C 1715.910156 549.890625 1717.808594 551.105469 1718.675781 553.058594 C 1719.5 554.941406 1719.152344 557.054688 1717.765625 558.589844 L 1716.839844 559.617188 C 1717.632812 560.164062 1718.269531 560.917969 1718.675781 561.828125 Z M 1249.375 793.359375 C 1249.691406 794.359375 1250.617188 794.996094 1251.617188 794.996094 C 1251.847656 794.996094 1252.09375 794.96875 1252.324219 794.878906 C 1259.953125 792.476562 1268.523438 789.886719 1269.839844 789.683594 C 1271.085938 789.613281 1272.054688 788.601562 1272.054688 787.339844 C 1272.054688 786.082031 1270.996094 784.996094 1269.710938 784.996094 C 1268.59375 784.996094 1262.269531 786.820312 1250.90625 790.394531 C 1249.675781 790.785156 1248.984375 792.101562 1249.375 793.347656 Z M 1266.394531 812.070312 L 1284.039062 796.632812 C 1285.023438 795.777344 1285.109375 794.285156 1284.253906 793.316406 C 1283.402344 792.332031 1281.910156 792.246094 1280.941406 793.101562 L 1263.527344 808.324219 L 1251.023438 814.359375 C 1249.851562 814.921875 1249.359375 816.324219 1249.921875 817.5 C 1250.328125 818.335938 1251.167969 818.828125 1252.035156 818.828125 C 1252.382812 818.828125 1252.730469 818.757812 1253.0625 818.597656 L 1265.859375 812.417969 C 1266.046875 812.332031 1266.222656 812.214844 1266.378906 812.070312 Z M 1292.214844 800.0625 C 1290.957031 799.800781 1289.699219 800.625 1289.453125 801.898438 L 1285.5 821.652344 L 1281.96875 836.207031 C 1281.664062 837.46875 1282.433594 838.742188 1283.707031 839.042969 C 1283.894531 839.089844 1284.082031 839.117188 1284.253906 839.117188 C 1285.3125 839.117188 1286.28125 838.394531 1286.542969 837.324219 L 1290.089844 822.679688 L 1294.054688 802.824219 C 1294.316406 801.550781 1293.488281 800.320312 1292.214844 800.0625 Z M 1561.894531 442.113281 C 1560.792969 435.386719 1554.933594 430.246094 1547.898438 430.246094 C 1540.863281 430.246094 1535.03125 435.386719 1533.902344 442.085938 C 1543.890625 442.113281 1556.667969 442.144531 1561.894531 442.113281 Z M 1552.6875 446.832031 C 1549.925781 446.832031 1546.539062 446.832031 1542.457031 446.816406 L 1542.457031 449.390625 C 1544.265625 449.347656 1546.074219 449.320312 1547.914062 449.320312 C 1549.75 449.320312 1551.558594 449.347656 1553.371094 449.390625 L 1553.371094 446.832031 C 1553.136719 446.832031 1552.933594 446.832031 1552.703125 446.832031 Z M 1398.007812 549.890625 L 1697.789062 549.890625 C 1696.574219 496.886719 1629.804688 454.023438 1547.898438 454.023438 C 1465.992188 454.023438 1399.222656 496.898438 1398.007812 549.890625 Z M 1455.582031 970.828125 L 1442.992188 834.007812 L 1422.726562 734.886719 C 1422.699219 734.710938 1422.667969 734.539062 1422.683594 734.363281 C 1422.683594 734.277344 1422.886719 725.523438 1422.164062 720.328125 C 1422.046875 719.472656 1421.917969 718.878906 1421.816406 718.460938 C 1418.328125 719.402344 1408.007812 723.191406 1398.746094 726.824219 L 1349.503906 757.15625 L 1312.4375 779.65625 C 1312.234375 779.789062 1312.003906 779.875 1311.769531 779.933594 L 1302.710938 782.101562 L 1304.300781 799.929688 C 1306.402344 823.9375 1310.816406 874.019531 1313.636719 905.160156 C 1313.722656 905.292969 1313.796875 905.421875 1313.855469 905.550781 C 1314.101562 906.144531 1314.070312 906.796875 1313.855469 907.347656 C 1315.113281 921.265625 1316.027344 930.949219 1316.199219 931.976562 C 1316.417969 933.03125 1316.429688 936.113281 1316.257812 952.855469 C 1316.171875 961.335938 1316.054688 971.683594 1316.183594 974.722656 C 1321.496094 977.90625 1361.429688 986.574219 1377.871094 986.574219 C 1392.144531 986.574219 1444.828125 973.535156 1455.640625 970.816406 Z M 1462.804688 816.890625 L 1446.507812 827.757812 L 1447.621094 833.199219 C 1447.636719 833.285156 1447.652344 833.371094 1447.667969 833.460938 L 1456.726562 931.789062 C 1466.511719 929.933594 1477.554688 927.011719 1479.726562 925.304688 C 1479.941406 918.199219 1469.722656 856.511719 1462.820312 816.90625 Z M 1482.9375 775.171875 C 1482.9375 775.171875 1482.824219 775.128906 1482.765625 775.097656 C 1458.058594 765.054688 1455.960938 763.246094 1455.265625 762.652344 C 1453.367188 761.035156 1448.359375 756.128906 1444.613281 752.4375 C 1445.871094 759.269531 1449.621094 768.601562 1460.246094 775.199219 C 1469.679688 781.0625 1476.585938 785.910156 1481.316406 789.425781 L 1482.9375 775.15625 Z M 1447.667969 711.398438 L 1438.980469 718.996094 L 1444.089844 742.742188 C 1444.148438 743.003906 1444.164062 743.261719 1444.121094 743.523438 C 1444.105469 743.652344 1444.035156 744.261719 1444.019531 745.230469 C 1446.40625 747.617188 1455.714844 756.867188 1458.320312 759.09375 C 1458.679688 759.414062 1461.691406 761.46875 1484.53125 770.742188 C 1486.082031 771.378906 1487.441406 771.914062 1488.484375 772.335938 L 1497.226562 747.617188 L 1447.652344 711.382812 Z M 1492.710938 738.503906 L 1496.152344 723.859375 L 1491.058594 723.523438 C 1490.855469 723.523438 1490.652344 723.46875 1490.464844 723.410156 L 1471.9375 717.230469 C 1471.824219 717.1875 1471.722656 717.144531 1471.605469 717.085938 L 1461.097656 711.703125 L 1459.390625 714.132812 L 1492.695312 738.472656 Z M 1623.957031 575.476562 L 1615.652344 575.476562 C 1615.535156 575.664062 1615.433594 575.851562 1615.261719 576.011719 C 1611.28125 579.746094 1600.800781 589.597656 1600.089844 590.292969 C 1599.644531 590.742188 1597.976562 592.117188 1593.96875 595.402344 C 1590.566406 598.195312 1586.71875 601.347656 1585.457031 602.507812 C 1583.5625 604.230469 1578.121094 610.566406 1576.179688 612.867188 C 1576.109375 612.941406 1576.050781 613.027344 1575.964844 613.085938 L 1570.882812 617.714844 C 1570.8125 617.789062 1570.722656 617.859375 1570.636719 617.917969 L 1564.90625 621.882812 C 1564.5 622.171875 1564.035156 622.304688 1563.574219 622.304688 C 1562.835938 622.304688 1562.097656 621.957031 1561.632812 621.289062 C 1560.894531 620.21875 1561.15625 618.757812 1562.226562 618.019531 L 1567.828125 614.140625 L 1572.675781 609.714844 C 1573.589844 608.640625 1579.898438 601.191406 1582.289062 599.019531 C 1583.632812 597.789062 1587.542969 594.589844 1590.988281 591.769531 C 1593.503906 589.699219 1596.371094 587.355469 1596.777344 586.964844 C 1597.414062 586.328125 1604.695312 579.484375 1608.976562 575.476562 L 1589.84375 575.476562 C 1589.785156 575.96875 1589.597656 576.460938 1589.222656 576.835938 C 1578.570312 587.601562 1562.371094 604.011719 1561.429688 605.113281 C 1560.128906 606.703125 1549.75 619.351562 1548.550781 620.148438 C 1548.1875 620.449219 1545.988281 622.78125 1544.0625 624.878906 C 1543.644531 626.367188 1542.425781 630.492188 1541.472656 632.765625 C 1540.691406 634.644531 1538.835938 639.347656 1537.738281 642.15625 C 1537.304688 643.269531 1536.96875 644.109375 1536.839844 644.414062 C 1536.667969 644.847656 1536.203125 646.003906 1530.296875 651.445312 C 1529.847656 651.867188 1529.269531 652.070312 1528.707031 652.070312 C 1528.070312 652.070312 1527.445312 651.808594 1526.984375 651.316406 C 1526.101562 650.363281 1526.171875 648.871094 1527.128906 648.003906 C 1529.355469 645.949219 1532.007812 643.328125 1532.542969 642.5625 C 1532.6875 642.1875 1532.988281 641.417969 1533.367188 640.449219 C 1534.480469 637.628906 1536.332031 632.894531 1537.128906 630.957031 C 1538.15625 628.480469 1539.664062 623.113281 1539.675781 623.070312 C 1539.777344 622.707031 1539.953125 622.390625 1540.199219 622.113281 C 1540.792969 621.464844 1541.296875 620.914062 1541.761719 620.40625 L 1541.339844 611.234375 C 1541.328125 610.828125 1541.414062 610.421875 1541.585938 610.0625 C 1543.121094 607.050781 1548.214844 597.109375 1549.621094 595.472656 C 1550.460938 594.402344 1555.699219 584.722656 1560.59375 575.460938 L 1549.246094 575.460938 C 1549.15625 575.621094 1540.820312 590.089844 1536.476562 598.121094 C 1535.972656 599.0625 1535.421875 600.105469 1534.84375 601.203125 C 1530.339844 609.785156 1523.554688 622.738281 1512.363281 630.480469 C 1501.550781 637.945312 1491.507812 647.121094 1489.742188 648.753906 L 1480 666.726562 C 1479.582031 667.507812 1478.769531 667.957031 1477.929688 667.957031 C 1477.554688 667.957031 1477.164062 667.871094 1476.816406 667.667969 C 1475.671875 667.046875 1475.253906 665.628906 1475.875 664.484375 L 1485.804688 646.179688 C 1485.921875 645.960938 1486.082031 645.761719 1486.269531 645.585938 C 1486.382812 645.484375 1497.574219 635.007812 1509.703125 626.613281 C 1509.804688 626.542969 1509.890625 626.46875 1509.992188 626.398438 C 1504.792969 623.777344 1494.113281 617.917969 1491.246094 615.589844 C 1487.628906 612.652344 1474.515625 584.648438 1470.261719 575.460938 L 1456.03125 575.460938 C 1459.027344 583.289062 1470.171875 612.707031 1471 618.035156 C 1471.910156 623.9375 1466.191406 646.152344 1465.265625 649.652344 L 1463.515625 677.21875 L 1463.515625 695.597656 C 1463.515625 696.058594 1463.386719 696.496094 1463.140625 696.886719 L 1457.941406 704.84375 L 1473.546875 712.832031 L 1491.625 718.851562 L 1502.796875 719.574219 L 1504.707031 704.988281 C 1504.75 704.699219 1504.839844 704.410156 1504.984375 704.148438 L 1515.578125 685.179688 C 1515.707031 684.960938 1515.867188 684.757812 1516.054688 684.585938 C 1516.835938 683.875 1535.132812 667.292969 1540.402344 662.90625 C 1545.234375 658.886719 1555.25 651.78125 1557.378906 650.273438 L 1564.628906 638.757812 L 1575.628906 620.277344 C 1575.71875 620.132812 1575.804688 620.003906 1575.917969 619.886719 L 1601.074219 592.535156 C 1601.175781 592.433594 1601.277344 592.335938 1601.410156 592.246094 L 1623.929688 575.460938 Z M 1494.257812 611.972656 C 1497.398438 614.515625 1511.742188 622.128906 1514.042969 623.15625 C 1521.84375 615.980469 1527.085938 606.007812 1530.730469 599.046875 C 1531.324219 597.917969 1531.875 596.863281 1532.398438 595.910156 C 1535.710938 589.773438 1541.3125 579.945312 1543.875 575.476562 L 1475.484375 575.476562 C 1483.359375 592.433594 1492.261719 610.175781 1494.257812 611.96875 Z M 1553.226562 598.554688 C 1552.488281 599.453125 1549.085938 605.820312 1546.089844 611.652344 L 1546.277344 615.804688 C 1548.664062 613.15625 1557.046875 603.128906 1557.667969 602.289062 C 1557.785156 602.117188 1558.1875 601.492188 1583.9375 575.476562 L 1565.917969 575.476562 C 1565.917969 575.476562 1565.890625 575.578125 1565.859375 575.621094 C 1563.242188 580.597656 1554.601562 596.9375 1553.210938 598.554688 Z M 1710.6875 559.441406 L 1714.304688 555.449219 C 1714.40625 555.332031 1714.492188 555.203125 1714.390625 554.984375 C 1714.335938 554.871094 1714.175781 554.609375 1713.726562 554.609375 L 1382.085938 554.609375 C 1381.636719 554.609375 1381.460938 554.871094 1381.417969 554.984375 C 1381.316406 555.203125 1381.417969 555.347656 1381.507812 555.449219 L 1385.125 559.441406 C 1385.746094 560.136719 1385.90625 561.121094 1385.53125 561.972656 C 1385.152344 562.828125 1384.3125 563.378906 1383.386719 563.378906 L 1382.085938 563.378906 C 1381.636719 563.378906 1381.460938 563.636719 1381.417969 563.753906 C 1381.316406 563.972656 1381.417969 564.117188 1381.507812 564.21875 L 1387.238281 570.554688 C 1387.367188 570.699219 1387.585938 570.785156 1387.816406 570.785156 L 1707.980469 570.785156 C 1708.210938 570.785156 1708.414062 570.699219 1708.558594 570.554688 L 1714.289062 564.230469 C 1714.390625 564.117188 1714.480469 563.984375 1714.378906 563.769531 C 1714.320312 563.652344 1714.160156 563.390625 1713.710938 563.390625 L 1712.410156 563.390625 C 1711.484375 563.390625 1710.644531 562.84375 1710.265625 561.988281 C 1709.890625 561.136719 1710.050781 560.152344 1710.671875 559.457031 Z M 1440.15625 914.292969 L 1443.671875 913.671875 L 1443.933594 915.144531 L 1440.371094 915.78125 L 1440.890625 919.355469 L 1442.121094 935.332031 L 1445.625 934.710938 L 1445.886719 936.1875 L 1442.238281 936.824219 L 1443.410156 952.03125 L 1447.867188 951.25 L 1448.128906 952.726562 L 1443.527344 953.535156 L 1444.25 962.871094 L 1442.757812 962.988281 L 1442.050781 953.796875 L 1428.546875 956.171875 L 1429.109375 964.273438 L 1427.621094 964.375 L 1427.070312 956.429688 L 1413.074219 958.890625 L 1408.601562 959.050781 L 1409.757812 969.859375 L 1408.269531 970.019531 L 1407.097656 959.109375 L 1392.738281 959.601562 L 1393.492188 969.050781 L 1392 969.164062 L 1391.246094 959.644531 L 1388.003906 959.757812 L 1372.359375 959.757812 L 1373.3125 972.132812 L 1371.824219 972.246094 L 1370.867188 959.757812 L 1370.332031 959.757812 L 1354.496094 960.09375 L 1354.527344 962.640625 L 1355.089844 972.984375 L 1353.601562 973.074219 L 1353.035156 962.695312 L 1353.007812 960.121094 L 1343.988281 960.308594 L 1334.421875 960.453125 L 1334.351562 970.773438 L 1332.859375 970.773438 C 1332.859375 970.773438 1332.929688 960.46875 1332.929688 960.46875 L 1325.765625 960.585938 L 1325.738281 959.09375 L 1332.945312 958.976562 L 1333.03125 947.804688 L 1323.566406 948.53125 L 1323.449219 947.039062 L 1333.03125 946.316406 L 1333.132812 933.207031 L 1332.28125 927.53125 L 1326.347656 927.792969 L 1326.289062 926.304688 L 1332.0625 926.058594 L 1329.789062 910.90625 L 1329.269531 905.957031 L 1321.121094 907.332031 L 1320.875 905.855469 L 1329.109375 904.46875 L 1326.996094 884.597656 L 1320.078125 886.566406 L 1319.671875 885.132812 L 1326.835938 883.109375 L 1326.417969 879.199219 L 1324.480469 863.195312 L 1319.269531 864.976562 L 1318.789062 863.558594 L 1324.304688 861.675781 L 1322.292969 845.050781 C 1317.71875 846.597656 1314.214844 847.785156 1313.941406 847.871094 L 1313.464844 846.453125 C 1313.738281 846.367188 1317.371094 845.136719 1322.105469 843.53125 L 1321.089844 835.195312 L 1322.566406 835.023438 L 1323.539062 843.039062 C 1327.128906 841.824219 1331.164062 840.449219 1334.8125 839.21875 L 1333.132812 805.429688 L 1334.625 805.355469 L 1336.273438 838.710938 C 1341.5 836.945312 1345.582031 835.558594 1345.699219 835.515625 L 1353.019531 834.023438 L 1350.226562 816.371094 L 1342.007812 819.523438 L 1341.472656 818.132812 L 1349.980469 814.863281 L 1348.011719 802.40625 L 1346.828125 788.644531 L 1340.050781 791.21875 L 1339.515625 789.816406 L 1346.695312 787.09375 L 1344.929688 766.75 L 1346.421875 766.617188 L 1348.144531 786.53125 L 1353.542969 784.476562 L 1363.429688 781.175781 L 1361.75 758.039062 L 1363.238281 757.9375 L 1364.890625 780.699219 L 1365.339844 780.554688 L 1371.386719 777.242188 L 1372.097656 778.558594 L 1365.933594 781.914062 L 1364.992188 782.234375 L 1366.324219 800.554688 L 1367.625 808.742188 L 1371.519531 807.46875 L 1383.15625 804.953125 L 1377.726562 788.296875 L 1376.890625 752.132812 L 1378.378906 752.105469 L 1379.21875 788.164062 L 1384.601562 804.648438 L 1398.65625 801.609375 L 1400.683594 800.292969 L 1395.429688 782.347656 L 1396.863281 781.929688 L 1402 799.453125 L 1416.085938 790.277344 L 1412.539062 778.152344 L 1413.972656 777.734375 L 1417.402344 789.425781 L 1423.507812 785.445312 L 1424.320312 786.691406 L 1417.835938 790.902344 L 1423.988281 811.898438 L 1430.675781 809.464844 L 1431.179688 810.871094 L 1424.277344 813.386719 L 1428.460938 837.65625 L 1439.445312 834.964844 L 1439.808594 836.410156 L 1428.71875 839.132812 L 1431.671875 856.308594 L 1432.222656 860.042969 L 1439.140625 857.972656 L 1439.574219 859.40625 L 1432.453125 861.546875 L 1436.074219 886.203125 L 1439.921875 884.628906 L 1440.488281 886.015625 L 1436.289062 887.722656 L 1440.199219 914.363281 Z M 1434.828125 888.230469 L 1432.875 889.027344 L 1420.164062 892.007812 L 1420.425781 894.714844 L 1424.335938 917.113281 L 1438.679688 914.566406 L 1434.8125 888.246094 Z M 1373.804688 851.5625 L 1364.613281 853.457031 L 1357.839844 854.515625 L 1361.9375 875.671875 L 1362.644531 875.539062 L 1378.394531 873.238281 Z M 1379.871094 873.023438 L 1397.152344 870.488281 L 1397.660156 870.34375 L 1396.820312 865.195312 L 1393.808594 847.4375 L 1375.269531 851.273438 L 1379.871094 873.035156 Z M 1362.210938 877.144531 L 1366.035156 896.882812 L 1366.324219 899.488281 L 1383.171875 897.957031 L 1385.601562 897.519531 L 1378.726562 874.6875 L 1362.878906 877.015625 L 1362.210938 877.132812 Z M 1387.0625 897.273438 L 1401.640625 894.65625 L 1397.890625 871.835938 L 1397.472656 871.964844 L 1380.21875 874.5 L 1387.0625 897.289062 Z M 1403.117188 894.394531 L 1404.984375 894.0625 L 1418.558594 890.878906 L 1416.15625 866.367188 L 1399.335938 871.414062 L 1403.117188 894.410156 Z M 1416.011719 864.847656 L 1415.027344 854.773438 L 1412.191406 843.125 L 1398.570312 846.453125 L 1395.269531 847.132812 L 1398.28125 864.949219 L 1399.089844 869.910156 L 1416.011719 864.832031 Z M 1411.828125 841.679688 L 1406.90625 821.519531 L 1406.605469 820.480469 L 1391.855469 826.992188 L 1395.023438 845.671875 L 1398.238281 845.007812 Z M 1390.449219 827.613281 L 1389.003906 828.25 L 1371.289062 831.839844 L 1371.648438 834.125 L 1374.964844 849.8125 L 1393.5625 845.976562 Z M 1370.171875 834.398438 L 1369.8125 832.140625 L 1354.714844 835.195312 L 1357.550781 853.066406 L 1364.339844 852.011719 L 1373.5 850.113281 Z M 1356.351562 854.761719 L 1342.976562 856.84375 L 1339.921875 857.886719 L 1340.789062 862.414062 C 1340.890625 863.050781 1342.265625 871.199219 1343.554688 879.042969 L 1360.445312 875.945312 L 1356.335938 854.746094 Z M 1343.800781 880.519531 C 1344.816406 886.710938 1345.726562 892.398438 1345.84375 893.597656 C 1345.929688 894.453125 1346.464844 897.550781 1347.171875 901.398438 L 1349.171875 901.066406 L 1364.816406 899.648438 L 1364.527344 897.128906 L 1360.707031 877.4375 L 1343.773438 880.53125 Z M 1347.449219 902.875 C 1349.011719 911.28125 1351.125 922.238281 1351.152344 922.410156 L 1351.53125 924.582031 L 1366.582031 922.367188 L 1367.378906 922.308594 L 1364.992188 901.125 L 1349.375 902.542969 L 1347.449219 902.859375 Z M 1368.871094 922.195312 L 1389.308594 920.601562 L 1388.929688 908.664062 L 1386.023438 898.984375 L 1383.359375 899.460938 L 1366.480469 900.992188 Z M 1390.421875 908.503906 L 1390.796875 920.472656 L 1402.523438 919.558594 L 1404.808594 919.355469 L 1402.957031 902.730469 L 1401.871094 896.132812 L 1387.484375 898.707031 Z M 1406.285156 919.226562 L 1418.488281 918.15625 L 1422.859375 917.375 L 1418.9375 894.917969 L 1418.691406 892.355469 L 1405.273438 895.507812 L 1403.347656 895.855469 L 1404.445312 902.511719 L 1406.300781 919.226562 Z M 1430.949219 861.910156 L 1417.589844 865.917969 L 1420.007812 890.515625 L 1432.394531 887.609375 L 1434.582031 886.710938 L 1430.933594 861.894531 Z M 1427.214844 839.4375 L 1413.609375 842.765625 L 1416.476562 854.527344 L 1417.445312 864.410156 L 1430.730469 860.433594 L 1430.152344 856.496094 Z M 1422.816406 813.867188 L 1415.722656 816.441406 L 1407.964844 819.871094 L 1408.339844 821.144531 L 1413.261719 841.332031 L 1426.96875 837.972656 L 1422.828125 813.867188 Z M 1402.390625 800.871094 L 1407.53125 818.4375 L 1415.15625 815.066406 L 1422.539062 812.390625 L 1416.488281 791.726562 Z M 1385.039062 806.066406 L 1391.40625 825.574219 L 1406.167969 819.046875 L 1401.089844 801.726562 L 1399.078125 803.027344 Z M 1367.828125 810.234375 L 1371.011719 830.363281 L 1388.582031 826.800781 L 1390.015625 826.164062 L 1383.574219 806.371094 L 1371.867188 808.902344 L 1367.8125 810.234375 Z M 1351.386719 814.3125 L 1356.03125 812.535156 L 1366.164062 809.222656 L 1364.816406 800.742188 L 1363.515625 782.738281 L 1354.019531 785.910156 L 1348.257812 788.09375 L 1349.488281 802.230469 L 1351.398438 814.3125 Z M 1354.46875 833.71875 L 1369.566406 830.667969 L 1366.410156 810.710938 L 1356.554688 813.9375 L 1351.644531 815.820312 L 1354.484375 833.71875 Z M 1336.476562 840.203125 L 1339.617188 856.425781 L 1342.601562 855.410156 L 1356.0625 853.3125 L 1353.238281 835.5 L 1346.074219 836.945312 C 1345.652344 837.089844 1341.585938 838.480469 1336.476562 840.203125 Z M 1325.722656 861.171875 L 1338.183594 856.917969 L 1335.058594 840.695312 C 1331.367188 841.953125 1327.300781 843.328125 1323.710938 844.542969 Z M 1328.269531 882.675781 L 1336.464844 880.359375 L 1342.066406 879.332031 C 1340.734375 871.269531 1339.3125 862.847656 1339.300781 862.691406 L 1338.476562 858.390625 L 1325.910156 862.691406 L 1327.894531 879.027344 L 1328.285156 882.6875 Z M 1330.558594 904.207031 L 1345.699219 901.660156 C 1344.988281 897.765625 1344.4375 894.640625 1344.351562 893.757812 C 1344.234375 892.601562 1343.339844 886.957031 1342.324219 880.792969 L 1336.824219 881.804688 L 1328.445312 884.179688 L 1330.570312 904.207031 Z M 1333.539062 925.984375 L 1345.609375 925.464844 L 1350.039062 924.8125 L 1349.679688 922.683594 C 1349.546875 922.003906 1347.492188 911.371094 1345.972656 903.136719 L 1330.71875 905.695312 L 1331.253906 910.703125 Z M 1334.609375 933.105469 L 1334.507812 946.199219 L 1352.804688 944.8125 L 1352.746094 940.5 L 1350.285156 926.257812 L 1345.742188 926.925781 L 1333.757812 927.445312 L 1334.597656 933.074219 Z M 1352.976562 958.628906 L 1352.820312 946.316406 L 1334.496094 947.707031 L 1334.40625 958.964844 L 1343.929688 958.820312 L 1352.964844 958.628906 Z M 1354.28125 944.710938 L 1364.078125 943.972656 L 1369.609375 943.785156 L 1369.277344 939.441406 L 1367.507812 923.800781 L 1366.714844 923.859375 L 1351.746094 926.058594 L 1354.207031 940.367188 L 1354.265625 944.695312 Z M 1370.738281 958.253906 L 1369.738281 945.257812 L 1364.167969 945.449219 L 1354.296875 946.199219 L 1354.453125 958.585938 L 1370.289062 958.253906 Z M 1371.113281 943.726562 L 1389.988281 943.074219 L 1389.335938 922.09375 L 1369.015625 923.683594 L 1370.78125 939.296875 Z M 1391.117188 958.152344 L 1390.03125 944.566406 L 1371.214844 945.214844 L 1372.214844 958.253906 L 1387.960938 958.253906 L 1391.101562 958.152344 Z M 1391.476562 943.03125 L 1405.039062 942.566406 C 1405.242188 942.539062 1405.589844 942.480469 1406.066406 942.394531 L 1405.722656 927.910156 L 1404.9375 920.863281 L 1402.609375 921.066406 L 1390.8125 921.992188 L 1391.464844 943.03125 Z M 1406.921875 957.632812 L 1406.300781 951.816406 L 1406.113281 943.914062 C 1405.808594 943.957031 1405.488281 944.015625 1405.199219 944.058594 L 1391.535156 944.523438 L 1392.621094 958.109375 L 1406.9375 957.632812 Z M 1407.558594 942.164062 C 1412.105469 941.425781 1421.238281 939.933594 1425.867188 939.269531 L 1425.363281 931.875 L 1423.089844 918.878906 L 1418.660156 919.660156 L 1406.429688 920.730469 L 1407.210938 927.808594 L 1407.542969 942.148438 Z M 1426.953125 954.953125 L 1425.96875 940.757812 C 1421.902344 941.351562 1414.027344 942.613281 1407.589844 943.667969 L 1407.777344 951.714844 L 1408.414062 957.589844 L 1412.898438 957.445312 L 1426.953125 954.96875 Z M 1440.746094 937.15625 C 1438.375 937.894531 1429.992188 940.425781 1428.632812 940.425781 C 1428.488281 940.425781 1428.070312 940.46875 1427.460938 940.558594 L 1428.445312 954.695312 L 1441.933594 952.320312 L 1440.761719 937.15625 Z M 1439.386719 919.546875 L 1438.878906 916.074219 L 1424.566406 918.621094 L 1426.851562 931.699219 L 1427.359375 939.066406 C 1428.011719 938.980469 1428.460938 938.9375 1428.632812 938.9375 C 1429.558594 938.9375 1436.433594 936.925781 1440.632812 935.636719 L 1439.386719 919.558594 Z M 1439.386719 919.546875 " fill-opacity="1" fill-rule="nonzero"/></g></svg>